<?xml version="1.0" encoding="UTF-8" standalone="no"?>
<!DOCTYPE svg PUBLIC "-//W3C//DTD SVG 1.1//EN"
 "http://www.w3.org/Graphics/SVG/1.1/DTD/svg11.dtd">
<!-- Generated by graphviz version 2.40.1 (20161225.0304)
 -->
<!-- Title: dependencies Pages: 1 -->
<svg width="2768pt" height="211pt"
 viewBox="0.00 0.00 2768.00 211.00" xmlns="http://www.w3.org/2000/svg" xmlns:xlink="http://www.w3.org/1999/xlink">
<g id="graph0" class="graph" transform="scale(1 1) rotate(0) translate(4 207)">
<title>dependencies</title>
<polygon fill="#ffffff" stroke="transparent" points="-4,4 -4,-207 2764,-207 2764,4 -4,4"/>
<text text-anchor="start" x="1359.0091" y="-42.4" font-family="sans-serif" font-weight="bold" font-size="14.00" fill="#000000">Legend</text>
<polygon fill="#ffffb3" stroke="transparent" points="1146,-10 1146,-30 1166,-30 1166,-10 1146,-10"/>
<text text-anchor="start" x="1169.629" y="-15.4" font-family="sans-serif" font-size="14.00" fill="#000000"> &#160;Declarations</text>
<polygon fill="#8dd3c7" stroke="transparent" points="1259,-10 1259,-30 1279,-30 1279,-10 1259,-10"/>
<text text-anchor="start" x="1282.7251" y="-15.4" font-family="sans-serif" font-size="14.00" fill="#000000"> &#160;Module</text>
<polygon fill="#80b1d3" stroke="transparent" points="1345,-10 1345,-30 1365,-30 1365,-10 1345,-10"/>
<text text-anchor="start" x="1368.7812" y="-15.4" font-family="sans-serif" font-size="14.00" fill="#000000"> &#160;Bootstrap</text>
<polygon fill="#fdb462" stroke="transparent" points="1442,-10 1442,-30 1462,-30 1462,-10 1442,-10"/>
<text text-anchor="start" x="1465.6732" y="-15.4" font-family="sans-serif" font-size="14.00" fill="#000000"> &#160;Providers</text>
<polygon fill="#fb8072" stroke="transparent" points="1538,-10 1538,-30 1558,-30 1558,-10 1538,-10"/>
<text text-anchor="start" x="1561.7258" y="-15.4" font-family="sans-serif" font-size="14.00" fill="#000000"> &#160;Exports</text>
<g id="clust1" class="cluster">
<title>cluster_ViewModule</title>
<polygon fill="none" stroke="#000000" stroke-dasharray="1,5" points="8,-70 8,-195 2752,-195 2752,-70 8,-70"/>
</g>
<g id="clust2" class="cluster">
<title>cluster_ViewModule_declarations</title>
<polygon fill="none" stroke="#000000" points="681,-78 681,-130 2744,-130 2744,-78 681,-78"/>
</g>
<g id="clust16" class="cluster">
<title>cluster_ViewModule_imports</title>
<polygon fill="none" stroke="#000000" points="406,-78 406,-130 673,-130 673,-78 406,-78"/>
</g>
<g id="clust19" class="cluster">
<title>cluster_ViewModule_providers</title>
<polygon fill="none" stroke="#000000" points="16,-78 16,-130 398,-130 398,-78 16,-78"/>
</g>
<!-- CodeRendererComponent -->
<g id="node1" class="node">
<title>CodeRendererComponent</title>
<polygon fill="#ffffb3" stroke="#000000" points="2736.1853,-122 2573.8147,-122 2573.8147,-86 2736.1853,-86 2736.1853,-122"/>
<text text-anchor="middle" x="2655" y="-99.8" font-family="Times,serif" font-size="14.00" fill="#000000">CodeRendererComponent</text>
</g>
<!-- ViewModule -->
<g id="node14" class="node">
<title>ViewModule</title>
<polygon fill="#8dd3c7" stroke="#000000" points="1411.8683,-187 1408.8683,-191 1387.8683,-191 1384.8683,-187 1322.1317,-187 1322.1317,-151 1411.8683,-151 1411.8683,-187"/>
<text text-anchor="middle" x="1367" y="-164.8" font-family="Times,serif" font-size="14.00" fill="#000000">ViewModule</text>
</g>
<!-- CodeRendererComponent&#45;&gt;ViewModule -->
<g id="edge1" class="edge">
<title>CodeRendererComponent&#45;&gt;ViewModule</title>
<path fill="none" stroke="#000000" d="M2655,-122.3228C2655,-145.6602 2655,-183 2655,-183 2655,-183 1422.0854,-183 1422.0854,-183"/>
<polygon fill="#000000" stroke="#000000" points="1422.0854,-179.5001 1412.0854,-183 1422.0853,-186.5001 1422.0854,-179.5001"/>
</g>
<!-- CsvComponent -->
<g id="node2" class="node">
<title>CsvComponent</title>
<polygon fill="#ffffb3" stroke="#000000" points="2555.6137,-122 2452.3863,-122 2452.3863,-86 2555.6137,-86 2555.6137,-122"/>
<text text-anchor="middle" x="2504" y="-99.8" font-family="Times,serif" font-size="14.00" fill="#000000">CsvComponent</text>
</g>
<!-- CsvComponent&#45;&gt;ViewModule -->
<g id="edge2" class="edge">
<title>CsvComponent&#45;&gt;ViewModule</title>
<path fill="none" stroke="#000000" d="M2504,-122.1554C2504,-144.3519 2504,-179 2504,-179 2504,-179 1421.9219,-179 1421.9219,-179"/>
<polygon fill="#000000" stroke="#000000" points="1421.922,-175.5001 1411.9219,-179 1421.9219,-182.5001 1421.922,-175.5001"/>
</g>
<!-- FileFooterComponent -->
<g id="node3" class="node">
<title>FileFooterComponent</title>
<polygon fill="#ffffb3" stroke="#000000" points="2434.6596,-122 2295.3404,-122 2295.3404,-86 2434.6596,-86 2434.6596,-122"/>
<text text-anchor="middle" x="2365" y="-99.8" font-family="Times,serif" font-size="14.00" fill="#000000">FileFooterComponent</text>
</g>
<!-- FileFooterComponent&#45;&gt;ViewModule -->
<g id="edge3" class="edge">
<title>FileFooterComponent&#45;&gt;ViewModule</title>
<path fill="none" stroke="#000000" d="M2365,-122.2843C2365,-143.3211 2365,-175 2365,-175 2365,-175 1422.1475,-175 1422.1475,-175"/>
<polygon fill="#000000" stroke="#000000" points="1422.1476,-171.5001 1412.1475,-175 1422.1475,-178.5001 1422.1476,-171.5001"/>
</g>
<!-- FileRendererComponent -->
<g id="node4" class="node">
<title>FileRendererComponent</title>
<polygon fill="#ffffb3" stroke="#000000" points="2277.413,-122 2122.587,-122 2122.587,-86 2277.413,-86 2277.413,-122"/>
<text text-anchor="middle" x="2200" y="-99.8" font-family="Times,serif" font-size="14.00" fill="#000000">FileRendererComponent</text>
</g>
<!-- FileRendererComponent&#45;&gt;ViewModule -->
<g id="edge4" class="edge">
<title>FileRendererComponent&#45;&gt;ViewModule</title>
<path fill="none" stroke="#000000" d="M2200,-122.308C2200,-142.1455 2200,-171 2200,-171 2200,-171 1422.0811,-171 1422.0811,-171"/>
<polygon fill="#000000" stroke="#000000" points="1422.0811,-167.5001 1412.0811,-171 1422.081,-174.5001 1422.0811,-167.5001"/>
</g>
<!-- FileTabsComponent -->
<g id="node5" class="node">
<title>FileTabsComponent</title>
<polygon fill="#ffffb3" stroke="#000000" points="2105.323,-122 1974.677,-122 1974.677,-86 2105.323,-86 2105.323,-122"/>
<text text-anchor="middle" x="2040" y="-99.8" font-family="Times,serif" font-size="14.00" fill="#000000">FileTabsComponent</text>
</g>
<!-- FileTabsComponent&#45;&gt;ViewModule -->
<g id="edge5" class="edge">
<title>FileTabsComponent&#45;&gt;ViewModule</title>
<path fill="none" stroke="#000000" d="M2040,-122.2222C2040,-140.8285 2040,-167 2040,-167 2040,-167 1421.9402,-167 1421.9402,-167"/>
<polygon fill="#000000" stroke="#000000" points="1421.9402,-163.5001 1411.9402,-167 1421.9402,-170.5001 1421.9402,-163.5001"/>
</g>
<!-- FileTreeComponent -->
<g id="node6" class="node">
<title>FileTreeComponent</title>
<polygon fill="#ffffb3" stroke="#000000" points="1956.2534,-122 1827.7466,-122 1827.7466,-86 1956.2534,-86 1956.2534,-122"/>
<text text-anchor="middle" x="1892" y="-99.8" font-family="Times,serif" font-size="14.00" fill="#000000">FileTreeComponent</text>
</g>
<!-- FileTreeComponent&#45;&gt;ViewModule -->
<g id="edge6" class="edge">
<title>FileTreeComponent&#45;&gt;ViewModule</title>
<path fill="none" stroke="#000000" d="M1892,-122.0225C1892,-139.3734 1892,-163 1892,-163 1892,-163 1422.2156,-163 1422.2156,-163"/>
<polygon fill="#000000" stroke="#000000" points="1422.2156,-159.5001 1412.2156,-163 1422.2156,-166.5001 1422.2156,-159.5001"/>
</g>
<!-- FileViewerComponent -->
<g id="node7" class="node">
<title>FileViewerComponent</title>
<polygon fill="#ffffb3" stroke="#000000" points="1809.3047,-122 1664.6953,-122 1664.6953,-86 1809.3047,-86 1809.3047,-122"/>
<text text-anchor="middle" x="1737" y="-99.8" font-family="Times,serif" font-size="14.00" fill="#000000">FileViewerComponent</text>
</g>
<!-- FileViewerComponent&#45;&gt;ViewModule -->
<g id="edge7" class="edge">
<title>FileViewerComponent&#45;&gt;ViewModule</title>
<path fill="none" stroke="#000000" d="M1737,-122.0091C1737,-138.0494 1737,-159 1737,-159 1737,-159 1421.9994,-159 1421.9994,-159"/>
<polygon fill="#000000" stroke="#000000" points="1421.9994,-155.5001 1411.9994,-159 1421.9993,-162.5001 1421.9994,-155.5001"/>
</g>
<!-- ImageRendererComponent -->
<g id="node8" class="node">
<title>ImageRendererComponent</title>
<polygon fill="#ffffb3" stroke="#000000" points="1646.6148,-122 1479.3852,-122 1479.3852,-86 1646.6148,-86 1646.6148,-122"/>
<text text-anchor="middle" x="1563" y="-99.8" font-family="Times,serif" font-size="14.00" fill="#000000">ImageRendererComponent</text>
</g>
<!-- ImageRendererComponent&#45;&gt;ViewModule -->
<g id="edge8" class="edge">
<title>ImageRendererComponent&#45;&gt;ViewModule</title>
<path fill="none" stroke="#000000" d="M1563,-122.1243C1563,-136.7832 1563,-155 1563,-155 1563,-155 1421.9664,-155 1421.9664,-155"/>
<polygon fill="#000000" stroke="#000000" points="1421.9664,-151.5001 1411.9664,-155 1421.9663,-158.5001 1421.9664,-151.5001"/>
</g>
<!-- LanguageSelectionComponent -->
<g id="node9" class="node">
<title>LanguageSelectionComponent</title>
<polygon fill="#ffffb3" stroke="#000000" points="1461.1274,-122 1272.8726,-122 1272.8726,-86 1461.1274,-86 1461.1274,-122"/>
<text text-anchor="middle" x="1367" y="-99.8" font-family="Times,serif" font-size="14.00" fill="#000000">LanguageSelectionComponent</text>
</g>
<!-- LanguageSelectionComponent&#45;&gt;ViewModule -->
<g id="edge9" class="edge">
<title>LanguageSelectionComponent&#45;&gt;ViewModule</title>
<path fill="none" stroke="#000000" d="M1367,-122.1061C1367,-122.1061 1367,-140.991 1367,-140.991"/>
<polygon fill="#000000" stroke="#000000" points="1363.5001,-140.9909 1367,-150.991 1370.5001,-140.991 1363.5001,-140.9909"/>
</g>
<!-- PrismDirective -->
<g id="node10" class="node">
<title>PrismDirective</title>
<polygon fill="#ffffb3" stroke="#000000" points="1254.2521,-122 1153.7479,-122 1153.7479,-86 1254.2521,-86 1254.2521,-122"/>
<text text-anchor="middle" x="1204" y="-99.8" font-family="Times,serif" font-size="14.00" fill="#000000">PrismDirective</text>
</g>
<!-- PrismDirective&#45;&gt;ViewModule -->
<g id="edge10" class="edge">
<title>PrismDirective&#45;&gt;ViewModule</title>
<path fill="none" stroke="#000000" d="M1204,-122.1243C1204,-136.7832 1204,-155 1204,-155 1204,-155 1312.028,-155 1312.028,-155"/>
<polygon fill="#000000" stroke="#000000" points="1312.0281,-158.5001 1322.028,-155 1312.028,-151.5001 1312.0281,-158.5001"/>
</g>
<!-- ScrollIntoViewDirective -->
<g id="node11" class="node">
<title>ScrollIntoViewDirective</title>
<polygon fill="#ffffb3" stroke="#000000" points="1135.3919,-122 980.6081,-122 980.6081,-86 1135.3919,-86 1135.3919,-122"/>
<text text-anchor="middle" x="1058" y="-99.8" font-family="Times,serif" font-size="14.00" fill="#000000">ScrollIntoViewDirective</text>
</g>
<!-- ScrollIntoViewDirective&#45;&gt;ViewModule -->
<g id="edge11" class="edge">
<title>ScrollIntoViewDirective&#45;&gt;ViewModule</title>
<path fill="none" stroke="#000000" d="M1058,-122.0091C1058,-138.0494 1058,-159 1058,-159 1058,-159 1312.0687,-159 1312.0687,-159"/>
<polygon fill="#000000" stroke="#000000" points="1312.0688,-162.5001 1322.0687,-159 1312.0687,-155.5001 1312.0688,-162.5001"/>
</g>
<!-- ShowdownComponent -->
<g id="node12" class="node">
<title>ShowdownComponent</title>
<polygon fill="#ffffb3" stroke="#000000" points="963.3286,-122 818.6714,-122 818.6714,-86 963.3286,-86 963.3286,-122"/>
<text text-anchor="middle" x="891" y="-99.8" font-family="Times,serif" font-size="14.00" fill="#000000">ShowdownComponent</text>
</g>
<!-- ShowdownComponent&#45;&gt;ViewModule -->
<g id="edge12" class="edge">
<title>ShowdownComponent&#45;&gt;ViewModule</title>
<path fill="none" stroke="#000000" d="M891,-122.0225C891,-139.3734 891,-163 891,-163 891,-163 1311.7899,-163 1311.7899,-163"/>
<polygon fill="#000000" stroke="#000000" points="1311.79,-166.5001 1321.7899,-163 1311.7899,-159.5001 1311.79,-166.5001"/>
</g>
<!-- ViewComponent -->
<g id="node13" class="node">
<title>ViewComponent</title>
<polygon fill="#ffffb3" stroke="#000000" points="800.6513,-122 689.3487,-122 689.3487,-86 800.6513,-86 800.6513,-122"/>
<text text-anchor="middle" x="745" y="-99.8" font-family="Times,serif" font-size="14.00" fill="#000000">ViewComponent</text>
</g>
<!-- ViewComponent&#45;&gt;ViewModule -->
<g id="edge13" class="edge">
<title>ViewComponent&#45;&gt;ViewModule</title>
<path fill="none" stroke="#000000" d="M745,-122.2222C745,-140.8285 745,-167 745,-167 745,-167 1312.0171,-167 1312.0171,-167"/>
<polygon fill="#000000" stroke="#000000" points="1312.0171,-170.5001 1322.0171,-167 1312.017,-163.5001 1312.0171,-170.5001"/>
</g>
<!-- SharedModule -->
<g id="node15" class="node">
<title>SharedModule</title>
<polygon fill="#8dd3c7" stroke="#000000" points="665.4231,-122 662.4231,-126 641.4231,-126 638.4231,-122 566.5769,-122 566.5769,-86 665.4231,-86 665.4231,-122"/>
<text text-anchor="middle" x="616" y="-99.8" font-family="Times,serif" font-size="14.00" fill="#000000">SharedModule</text>
</g>
<!-- SharedModule&#45;&gt;ViewModule -->
<g id="edge14" class="edge">
<title>SharedModule&#45;&gt;ViewModule</title>
<path fill="none" stroke="#000000" d="M616,-122.308C616,-142.1455 616,-171 616,-171 616,-171 1311.9921,-171 1311.9921,-171"/>
<polygon fill="#000000" stroke="#000000" points="1311.9921,-174.5001 1321.9921,-171 1311.992,-167.5001 1311.9921,-174.5001"/>
</g>
<!-- ViewRoutingModule -->
<g id="node16" class="node">
<title>ViewRoutingModule</title>
<polygon fill="#8dd3c7" stroke="#000000" points="548.486,-122 545.486,-126 524.486,-126 521.486,-122 413.514,-122 413.514,-86 548.486,-86 548.486,-122"/>
<text text-anchor="middle" x="481" y="-99.8" font-family="Times,serif" font-size="14.00" fill="#000000">ViewRoutingModule</text>
</g>
<!-- ViewRoutingModule&#45;&gt;ViewModule -->
<g id="edge15" class="edge">
<title>ViewRoutingModule&#45;&gt;ViewModule</title>
<path fill="none" stroke="#000000" d="M481,-122.2843C481,-143.3211 481,-175 481,-175 481,-175 1311.8451,-175 1311.8451,-175"/>
<polygon fill="#000000" stroke="#000000" points="1311.8451,-178.5001 1321.8451,-175 1311.845,-171.5001 1311.8451,-178.5001"/>
</g>
<!-- FileLoaderService -->
<g id="node17" class="node">
<title>FileLoaderService</title>
<ellipse fill="#fdb462" stroke="#000000" cx="308" cy="-104" rx="82.2179" ry="18"/>
<text text-anchor="middle" x="308" y="-99.8" font-family="Times,serif" font-size="14.00" fill="#000000">FileLoaderService</text>
</g>
<!-- FileLoaderService&#45;&gt;ViewModule -->
<g id="edge16" class="edge">
<title>FileLoaderService&#45;&gt;ViewModule</title>
<path fill="none" stroke="#000000" d="M308,-122.1554C308,-144.3519 308,-179 308,-179 308,-179 1311.8349,-179 1311.8349,-179"/>
<polygon fill="#000000" stroke="#000000" points="1311.8349,-182.5001 1321.8349,-179 1311.8348,-175.5001 1311.8349,-182.5001"/>
</g>
<!-- RenderCacheService -->
<g id="node18" class="node">
<title>RenderCacheService</title>
<ellipse fill="#fdb462" stroke="#000000" cx="116" cy="-104" rx="92.0123" ry="18"/>
<text text-anchor="middle" x="116" y="-99.8" font-family="Times,serif" font-size="14.00" fill="#000000">RenderCacheService</text>
</g>
<!-- RenderCacheService&#45;&gt;ViewModule -->
<g id="edge17" class="edge">
<title>RenderCacheService&#45;&gt;ViewModule</title>
<path fill="none" stroke="#000000" d="M116,-122.3228C116,-145.6602 116,-183 116,-183 116,-183 1312.1074,-183 1312.1074,-183"/>
<polygon fill="#000000" stroke="#000000" points="1312.1074,-186.5001 1322.1074,-183 1312.1074,-179.5001 1312.1074,-186.5001"/>
</g>
</g>
</svg>
