<?xml version="1.0" encoding="UTF-8" standalone="no"?>
<!DOCTYPE svg PUBLIC "-//W3C//DTD SVG 1.1//EN"
 "http://www.w3.org/Graphics/SVG/1.1/DTD/svg11.dtd">
<!-- Generated by graphviz version 2.40.1 (20161225.0304)
 -->
<!-- Title: dependencies Pages: 1 -->
<svg width="2893pt" height="211pt"
 viewBox="0.00 0.00 2893.00 211.00" xmlns="http://www.w3.org/2000/svg" xmlns:xlink="http://www.w3.org/1999/xlink">
<g id="graph0" class="graph" transform="scale(1 1) rotate(0) translate(4 207)">
<title>dependencies</title>
<polygon fill="#ffffff" stroke="transparent" points="-4,4 -4,-207 2889,-207 2889,4 -4,4"/>
<text text-anchor="start" x="1421.5091" y="-42.4" font-family="sans-serif" font-weight="bold" font-size="14.00" fill="#000000">Legend</text>
<polygon fill="#ffffb3" stroke="transparent" points="1208.5,-10 1208.5,-30 1228.5,-30 1228.5,-10 1208.5,-10"/>
<text text-anchor="start" x="1232.129" y="-15.4" font-family="sans-serif" font-size="14.00" fill="#000000"> &#160;Declarations</text>
<polygon fill="#8dd3c7" stroke="transparent" points="1321.5,-10 1321.5,-30 1341.5,-30 1341.5,-10 1321.5,-10"/>
<text text-anchor="start" x="1345.2251" y="-15.4" font-family="sans-serif" font-size="14.00" fill="#000000"> &#160;Module</text>
<polygon fill="#80b1d3" stroke="transparent" points="1407.5,-10 1407.5,-30 1427.5,-30 1427.5,-10 1407.5,-10"/>
<text text-anchor="start" x="1431.2812" y="-15.4" font-family="sans-serif" font-size="14.00" fill="#000000"> &#160;Bootstrap</text>
<polygon fill="#fdb462" stroke="transparent" points="1504.5,-10 1504.5,-30 1524.5,-30 1524.5,-10 1504.5,-10"/>
<text text-anchor="start" x="1528.1732" y="-15.4" font-family="sans-serif" font-size="14.00" fill="#000000"> &#160;Providers</text>
<polygon fill="#fb8072" stroke="transparent" points="1600.5,-10 1600.5,-30 1620.5,-30 1620.5,-10 1600.5,-10"/>
<text text-anchor="start" x="1624.2258" y="-15.4" font-family="sans-serif" font-size="14.00" fill="#000000"> &#160;Exports</text>
<g id="clust1" class="cluster">
<title>cluster_ViewModule</title>
<polygon fill="none" stroke="#000000" stroke-dasharray="1,5" points="8,-70 8,-195 2877,-195 2877,-70 8,-70"/>
</g>
<g id="clust2" class="cluster">
<title>cluster_ViewModule_declarations</title>
<polygon fill="none" stroke="#000000" points="806,-78 806,-130 2869,-130 2869,-78 806,-78"/>
</g>
<g id="clust16" class="cluster">
<title>cluster_ViewModule_imports</title>
<polygon fill="none" stroke="#000000" points="406,-78 406,-130 798,-130 798,-78 406,-78"/>
</g>
<g id="clust19" class="cluster">
<title>cluster_ViewModule_providers</title>
<polygon fill="none" stroke="#000000" points="16,-78 16,-130 398,-130 398,-78 16,-78"/>
</g>
<!-- CodeRendererComponent -->
<g id="node1" class="node">
<title>CodeRendererComponent</title>
<polygon fill="#ffffb3" stroke="#000000" points="2861.1853,-122 2698.8147,-122 2698.8147,-86 2861.1853,-86 2861.1853,-122"/>
<text text-anchor="middle" x="2780" y="-99.8" font-family="Times,serif" font-size="14.00" fill="#000000">CodeRendererComponent</text>
</g>
<!-- ViewModule -->
<g id="node14" class="node">
<title>ViewModule</title>
<polygon fill="#8dd3c7" stroke="#000000" points="1454.8683,-187 1451.8683,-191 1430.8683,-191 1427.8683,-187 1365.1317,-187 1365.1317,-151 1454.8683,-151 1454.8683,-187"/>
<text text-anchor="middle" x="1410" y="-164.8" font-family="Times,serif" font-size="14.00" fill="#000000">ViewModule</text>
</g>
<!-- CodeRendererComponent&#45;&gt;ViewModule -->
<g id="edge1" class="edge">
<title>CodeRendererComponent&#45;&gt;ViewModule</title>
<path fill="none" stroke="#000000" d="M2780,-122.3228C2780,-145.6602 2780,-183 2780,-183 2780,-183 1465.1921,-183 1465.1921,-183"/>
<polygon fill="#000000" stroke="#000000" points="1465.1922,-179.5001 1455.1921,-183 1465.1921,-186.5001 1465.1922,-179.5001"/>
</g>
<!-- CsvComponent -->
<g id="node2" class="node">
<title>CsvComponent</title>
<polygon fill="#ffffb3" stroke="#000000" points="2680.6137,-122 2577.3863,-122 2577.3863,-86 2680.6137,-86 2680.6137,-122"/>
<text text-anchor="middle" x="2629" y="-99.8" font-family="Times,serif" font-size="14.00" fill="#000000">CsvComponent</text>
</g>
<!-- CsvComponent&#45;&gt;ViewModule -->
<g id="edge2" class="edge">
<title>CsvComponent&#45;&gt;ViewModule</title>
<path fill="none" stroke="#000000" d="M2629,-122.1554C2629,-144.3519 2629,-179 2629,-179 2629,-179 1465.1953,-179 1465.1953,-179"/>
<polygon fill="#000000" stroke="#000000" points="1465.1954,-175.5001 1455.1953,-179 1465.1953,-182.5001 1465.1954,-175.5001"/>
</g>
<!-- FileFooterComponent -->
<g id="node3" class="node">
<title>FileFooterComponent</title>
<polygon fill="#ffffb3" stroke="#000000" points="2559.6596,-122 2420.3404,-122 2420.3404,-86 2559.6596,-86 2559.6596,-122"/>
<text text-anchor="middle" x="2490" y="-99.8" font-family="Times,serif" font-size="14.00" fill="#000000">FileFooterComponent</text>
</g>
<!-- FileFooterComponent&#45;&gt;ViewModule -->
<g id="edge3" class="edge">
<title>FileFooterComponent&#45;&gt;ViewModule</title>
<path fill="none" stroke="#000000" d="M2490,-122.2843C2490,-143.3211 2490,-175 2490,-175 2490,-175 1465.0313,-175 1465.0313,-175"/>
<polygon fill="#000000" stroke="#000000" points="1465.0313,-171.5001 1455.0313,-175 1465.0312,-178.5001 1465.0313,-171.5001"/>
</g>
<!-- FileRendererComponent -->
<g id="node4" class="node">
<title>FileRendererComponent</title>
<polygon fill="#ffffb3" stroke="#000000" points="2402.413,-122 2247.587,-122 2247.587,-86 2402.413,-86 2402.413,-122"/>
<text text-anchor="middle" x="2325" y="-99.8" font-family="Times,serif" font-size="14.00" fill="#000000">FileRendererComponent</text>
</g>
<!-- FileRendererComponent&#45;&gt;ViewModule -->
<g id="edge4" class="edge">
<title>FileRendererComponent&#45;&gt;ViewModule</title>
<path fill="none" stroke="#000000" d="M2325,-122.308C2325,-142.1455 2325,-171 2325,-171 2325,-171 1465.0629,-171 1465.0629,-171"/>
<polygon fill="#000000" stroke="#000000" points="1465.0629,-167.5001 1455.0629,-171 1465.0629,-174.5001 1465.0629,-167.5001"/>
</g>
<!-- FileTabsComponent -->
<g id="node5" class="node">
<title>FileTabsComponent</title>
<polygon fill="#ffffb3" stroke="#000000" points="2230.323,-122 2099.677,-122 2099.677,-86 2230.323,-86 2230.323,-122"/>
<text text-anchor="middle" x="2165" y="-99.8" font-family="Times,serif" font-size="14.00" fill="#000000">FileTabsComponent</text>
</g>
<!-- FileTabsComponent&#45;&gt;ViewModule -->
<g id="edge5" class="edge">
<title>FileTabsComponent&#45;&gt;ViewModule</title>
<path fill="none" stroke="#000000" d="M2165,-122.2222C2165,-140.8285 2165,-167 2165,-167 2165,-167 1464.9677,-167 1464.9677,-167"/>
<polygon fill="#000000" stroke="#000000" points="1464.9677,-163.5001 1454.9677,-167 1464.9676,-170.5001 1464.9677,-163.5001"/>
</g>
<!-- FileTreeComponent -->
<g id="node6" class="node">
<title>FileTreeComponent</title>
<polygon fill="#ffffb3" stroke="#000000" points="2081.2534,-122 1952.7466,-122 1952.7466,-86 2081.2534,-86 2081.2534,-122"/>
<text text-anchor="middle" x="2017" y="-99.8" font-family="Times,serif" font-size="14.00" fill="#000000">FileTreeComponent</text>
</g>
<!-- FileTreeComponent&#45;&gt;ViewModule -->
<g id="edge6" class="edge">
<title>FileTreeComponent&#45;&gt;ViewModule</title>
<path fill="none" stroke="#000000" d="M2017,-122.0225C2017,-139.3734 2017,-163 2017,-163 2017,-163 1465.1278,-163 1465.1278,-163"/>
<polygon fill="#000000" stroke="#000000" points="1465.1278,-159.5001 1455.1278,-163 1465.1277,-166.5001 1465.1278,-159.5001"/>
</g>
<!-- FileViewerComponent -->
<g id="node7" class="node">
<title>FileViewerComponent</title>
<polygon fill="#ffffb3" stroke="#000000" points="1934.3047,-122 1789.6953,-122 1789.6953,-86 1934.3047,-86 1934.3047,-122"/>
<text text-anchor="middle" x="1862" y="-99.8" font-family="Times,serif" font-size="14.00" fill="#000000">FileViewerComponent</text>
</g>
<!-- FileViewerComponent&#45;&gt;ViewModule -->
<g id="edge7" class="edge">
<title>FileViewerComponent&#45;&gt;ViewModule</title>
<path fill="none" stroke="#000000" d="M1862,-122.0091C1862,-138.0494 1862,-159 1862,-159 1862,-159 1464.992,-159 1464.992,-159"/>
<polygon fill="#000000" stroke="#000000" points="1464.992,-155.5001 1454.992,-159 1464.9919,-162.5001 1464.992,-155.5001"/>
</g>
<!-- ImageRendererComponent -->
<g id="node8" class="node">
<title>ImageRendererComponent</title>
<polygon fill="#ffffb3" stroke="#000000" points="1771.6148,-122 1604.3852,-122 1604.3852,-86 1771.6148,-86 1771.6148,-122"/>
<text text-anchor="middle" x="1688" y="-99.8" font-family="Times,serif" font-size="14.00" fill="#000000">ImageRendererComponent</text>
</g>
<!-- ImageRendererComponent&#45;&gt;ViewModule -->
<g id="edge8" class="edge">
<title>ImageRendererComponent&#45;&gt;ViewModule</title>
<path fill="none" stroke="#000000" d="M1688,-122.1243C1688,-136.7832 1688,-155 1688,-155 1688,-155 1464.9745,-155 1464.9745,-155"/>
<polygon fill="#000000" stroke="#000000" points="1464.9745,-151.5001 1454.9745,-155 1464.9744,-158.5001 1464.9745,-151.5001"/>
</g>
<!-- LanguageSelectionComponent -->
<g id="node9" class="node">
<title>LanguageSelectionComponent</title>
<polygon fill="#ffffb3" stroke="#000000" points="1586.1274,-122 1397.8726,-122 1397.8726,-86 1586.1274,-86 1586.1274,-122"/>
<text text-anchor="middle" x="1492" y="-99.8" font-family="Times,serif" font-size="14.00" fill="#000000">LanguageSelectionComponent</text>
</g>
<!-- LanguageSelectionComponent&#45;&gt;ViewModule -->
<g id="edge9" class="edge">
<title>LanguageSelectionComponent&#45;&gt;ViewModule</title>
<path fill="none" stroke="#000000" d="M1426.3103,-122.1061C1426.3103,-122.1061 1426.3103,-140.991 1426.3103,-140.991"/>
<polygon fill="#000000" stroke="#000000" points="1422.8104,-140.9909 1426.3103,-150.991 1429.8104,-140.991 1422.8104,-140.9909"/>
</g>
<!-- PrismDirective -->
<g id="node10" class="node">
<title>PrismDirective</title>
<polygon fill="#ffffb3" stroke="#000000" points="1379.2521,-122 1278.7479,-122 1278.7479,-86 1379.2521,-86 1379.2521,-122"/>
<text text-anchor="middle" x="1329" y="-99.8" font-family="Times,serif" font-size="14.00" fill="#000000">PrismDirective</text>
</g>
<!-- PrismDirective&#45;&gt;ViewModule -->
<g id="edge10" class="edge">
<title>PrismDirective&#45;&gt;ViewModule</title>
<path fill="none" stroke="#000000" d="M1372.2209,-122.1061C1372.2209,-122.1061 1372.2209,-140.991 1372.2209,-140.991"/>
<polygon fill="#000000" stroke="#000000" points="1368.721,-140.9909 1372.2209,-150.991 1375.721,-140.991 1368.721,-140.9909"/>
</g>
<!-- ScrollIntoViewDirective -->
<g id="node11" class="node">
<title>ScrollIntoViewDirective</title>
<polygon fill="#ffffb3" stroke="#000000" points="1260.3919,-122 1105.6081,-122 1105.6081,-86 1260.3919,-86 1260.3919,-122"/>
<text text-anchor="middle" x="1183" y="-99.8" font-family="Times,serif" font-size="14.00" fill="#000000">ScrollIntoViewDirective</text>
</g>
<!-- ScrollIntoViewDirective&#45;&gt;ViewModule -->
<g id="edge11" class="edge">
<title>ScrollIntoViewDirective&#45;&gt;ViewModule</title>
<path fill="none" stroke="#000000" d="M1183,-122.1243C1183,-136.7832 1183,-155 1183,-155 1183,-155 1354.8807,-155 1354.8807,-155"/>
<polygon fill="#000000" stroke="#000000" points="1354.8807,-158.5001 1364.8807,-155 1354.8807,-151.5001 1354.8807,-158.5001"/>
</g>
<!-- ShowdownComponent -->
<g id="node12" class="node">
<title>ShowdownComponent</title>
<polygon fill="#ffffb3" stroke="#000000" points="1088.3286,-122 943.6714,-122 943.6714,-86 1088.3286,-86 1088.3286,-122"/>
<text text-anchor="middle" x="1016" y="-99.8" font-family="Times,serif" font-size="14.00" fill="#000000">ShowdownComponent</text>
</g>
<!-- ShowdownComponent&#45;&gt;ViewModule -->
<g id="edge12" class="edge">
<title>ShowdownComponent&#45;&gt;ViewModule</title>
<path fill="none" stroke="#000000" d="M1016,-122.0091C1016,-138.0494 1016,-159 1016,-159 1016,-159 1354.8032,-159 1354.8032,-159"/>
<polygon fill="#000000" stroke="#000000" points="1354.8032,-162.5001 1364.8032,-159 1354.8032,-155.5001 1354.8032,-162.5001"/>
</g>
<!-- ViewComponent -->
<g id="node13" class="node">
<title>ViewComponent</title>
<polygon fill="#ffffb3" stroke="#000000" points="925.6513,-122 814.3487,-122 814.3487,-86 925.6513,-86 925.6513,-122"/>
<text text-anchor="middle" x="870" y="-99.8" font-family="Times,serif" font-size="14.00" fill="#000000">ViewComponent</text>
</g>
<!-- ViewComponent&#45;&gt;ViewModule -->
<g id="edge13" class="edge">
<title>ViewComponent&#45;&gt;ViewModule</title>
<path fill="none" stroke="#000000" d="M870,-122.0225C870,-139.3734 870,-163 870,-163 870,-163 1354.8887,-163 1354.8887,-163"/>
<polygon fill="#000000" stroke="#000000" points="1354.8887,-166.5001 1364.8887,-163 1354.8887,-159.5001 1354.8887,-166.5001"/>
</g>
<!-- MaterialModule -->
<g id="node15" class="node">
<title>MaterialModule</title>
<polygon fill="#8dd3c7" stroke="#000000" points="790.4706,-122 787.4706,-126 766.4706,-126 763.4706,-122 683.5294,-122 683.5294,-86 790.4706,-86 790.4706,-122"/>
<text text-anchor="middle" x="737" y="-99.8" font-family="Times,serif" font-size="14.00" fill="#000000">MaterialModule</text>
</g>
<!-- MaterialModule&#45;&gt;ViewModule -->
<g id="edge14" class="edge">
<title>MaterialModule&#45;&gt;ViewModule</title>
<path fill="none" stroke="#000000" d="M737,-122.2222C737,-140.8285 737,-167 737,-167 737,-167 1355.0598,-167 1355.0598,-167"/>
<polygon fill="#000000" stroke="#000000" points="1355.0598,-170.5001 1365.0598,-167 1355.0598,-163.5001 1355.0598,-170.5001"/>
</g>
<!-- SharedModule -->
<g id="node16" class="node">
<title>SharedModule</title>
<polygon fill="#8dd3c7" stroke="#000000" points="665.4231,-122 662.4231,-126 641.4231,-126 638.4231,-122 566.5769,-122 566.5769,-86 665.4231,-86 665.4231,-122"/>
<text text-anchor="middle" x="616" y="-99.8" font-family="Times,serif" font-size="14.00" fill="#000000">SharedModule</text>
</g>
<!-- SharedModule&#45;&gt;ViewModule -->
<g id="edge15" class="edge">
<title>SharedModule&#45;&gt;ViewModule</title>
<path fill="none" stroke="#000000" d="M616,-122.308C616,-142.1455 616,-171 616,-171 616,-171 1355.0361,-171 1355.0361,-171"/>
<polygon fill="#000000" stroke="#000000" points="1355.0362,-174.5001 1365.0361,-171 1355.0361,-167.5001 1355.0362,-174.5001"/>
</g>
<!-- ViewRoutingModule -->
<g id="node17" class="node">
<title>ViewRoutingModule</title>
<polygon fill="#8dd3c7" stroke="#000000" points="548.486,-122 545.486,-126 524.486,-126 521.486,-122 413.514,-122 413.514,-86 548.486,-86 548.486,-122"/>
<text text-anchor="middle" x="481" y="-99.8" font-family="Times,serif" font-size="14.00" fill="#000000">ViewRoutingModule</text>
</g>
<!-- ViewRoutingModule&#45;&gt;ViewModule -->
<g id="edge16" class="edge">
<title>ViewRoutingModule&#45;&gt;ViewModule</title>
<path fill="none" stroke="#000000" d="M481,-122.2843C481,-143.3211 481,-175 481,-175 481,-175 1354.8784,-175 1354.8784,-175"/>
<polygon fill="#000000" stroke="#000000" points="1354.8785,-178.5001 1364.8784,-175 1354.8784,-171.5001 1354.8785,-178.5001"/>
</g>
<!-- FileLoaderService -->
<g id="node18" class="node">
<title>FileLoaderService</title>
<ellipse fill="#fdb462" stroke="#000000" cx="308" cy="-104" rx="82.2179" ry="18"/>
<text text-anchor="middle" x="308" y="-99.8" font-family="Times,serif" font-size="14.00" fill="#000000">FileLoaderService</text>
</g>
<!-- FileLoaderService&#45;&gt;ViewModule -->
<g id="edge17" class="edge">
<title>FileLoaderService&#45;&gt;ViewModule</title>
<path fill="none" stroke="#000000" d="M308,-122.1554C308,-144.3519 308,-179 308,-179 308,-179 1355.0912,-179 1355.0912,-179"/>
<polygon fill="#000000" stroke="#000000" points="1355.0912,-182.5001 1365.0912,-179 1355.0912,-175.5001 1355.0912,-182.5001"/>
</g>
<!-- RenderCacheService -->
<g id="node19" class="node">
<title>RenderCacheService</title>
<ellipse fill="#fdb462" stroke="#000000" cx="116" cy="-104" rx="92.0123" ry="18"/>
<text text-anchor="middle" x="116" y="-99.8" font-family="Times,serif" font-size="14.00" fill="#000000">RenderCacheService</text>
</g>
<!-- RenderCacheService&#45;&gt;ViewModule -->
<g id="edge18" class="edge">
<title>RenderCacheService&#45;&gt;ViewModule</title>
<path fill="none" stroke="#000000" d="M116,-122.3228C116,-145.6602 116,-183 116,-183 116,-183 1355.0818,-183 1355.0818,-183"/>
<polygon fill="#000000" stroke="#000000" points="1355.0818,-186.5001 1365.0818,-183 1355.0818,-179.5001 1355.0818,-186.5001"/>
</g>
</g>
</svg>
