<?xml version="1.0" encoding="UTF-8" standalone="no"?>
<!DOCTYPE svg PUBLIC "-//W3C//DTD SVG 1.1//EN"
 "http://www.w3.org/Graphics/SVG/1.1/DTD/svg11.dtd">
<!-- Generated by graphviz version 2.40.1 (20161225.0304)
 -->
<!-- Title: dependencies Pages: 1 -->
<svg width="3056pt" height="211pt"
 viewBox="0.00 0.00 3056.00 211.00" xmlns="http://www.w3.org/2000/svg" xmlns:xlink="http://www.w3.org/1999/xlink">
<g id="graph0" class="graph" transform="scale(1 1) rotate(0) translate(4 207)">
<title>dependencies</title>
<polygon fill="#ffffff" stroke="transparent" points="-4,4 -4,-207 3052,-207 3052,4 -4,4"/>
<text text-anchor="start" x="1503.0091" y="-42.4" font-family="sans-serif" font-weight="bold" font-size="14.00" fill="#000000">Legend</text>
<polygon fill="#ffffb3" stroke="transparent" points="1290,-10 1290,-30 1310,-30 1310,-10 1290,-10"/>
<text text-anchor="start" x="1313.629" y="-15.4" font-family="sans-serif" font-size="14.00" fill="#000000"> &#160;Declarations</text>
<polygon fill="#8dd3c7" stroke="transparent" points="1403,-10 1403,-30 1423,-30 1423,-10 1403,-10"/>
<text text-anchor="start" x="1426.7251" y="-15.4" font-family="sans-serif" font-size="14.00" fill="#000000"> &#160;Module</text>
<polygon fill="#80b1d3" stroke="transparent" points="1489,-10 1489,-30 1509,-30 1509,-10 1489,-10"/>
<text text-anchor="start" x="1512.7812" y="-15.4" font-family="sans-serif" font-size="14.00" fill="#000000"> &#160;Bootstrap</text>
<polygon fill="#fdb462" stroke="transparent" points="1586,-10 1586,-30 1606,-30 1606,-10 1586,-10"/>
<text text-anchor="start" x="1609.6732" y="-15.4" font-family="sans-serif" font-size="14.00" fill="#000000"> &#160;Providers</text>
<polygon fill="#fb8072" stroke="transparent" points="1682,-10 1682,-30 1702,-30 1702,-10 1682,-10"/>
<text text-anchor="start" x="1705.7258" y="-15.4" font-family="sans-serif" font-size="14.00" fill="#000000"> &#160;Exports</text>
<g id="clust1" class="cluster">
<title>cluster_ViewModule</title>
<polygon fill="none" stroke="#000000" stroke-dasharray="1,5" points="8,-70 8,-195 3040,-195 3040,-70 8,-70"/>
</g>
<g id="clust2" class="cluster">
<title>cluster_ViewModule_declarations</title>
<polygon fill="none" stroke="#000000" points="969,-78 969,-130 3032,-130 3032,-78 969,-78"/>
</g>
<g id="clust16" class="cluster">
<title>cluster_ViewModule_imports</title>
<polygon fill="none" stroke="#000000" points="569,-78 569,-130 961,-130 961,-78 569,-78"/>
</g>
<g id="clust19" class="cluster">
<title>cluster_ViewModule_providers</title>
<polygon fill="none" stroke="#000000" points="16,-78 16,-130 561,-130 561,-78 16,-78"/>
</g>
<!-- CodeRendererComponent -->
<g id="node1" class="node">
<title>CodeRendererComponent</title>
<polygon fill="#ffffb3" stroke="#000000" points="3024.1853,-122 2861.8147,-122 2861.8147,-86 3024.1853,-86 3024.1853,-122"/>
<text text-anchor="middle" x="2943" y="-99.8" font-family="Times,serif" font-size="14.00" fill="#000000">CodeRendererComponent</text>
</g>
<!-- ViewModule -->
<g id="node14" class="node">
<title>ViewModule</title>
<polygon fill="#8dd3c7" stroke="#000000" points="1536.8683,-187 1533.8683,-191 1512.8683,-191 1509.8683,-187 1447.1317,-187 1447.1317,-151 1536.8683,-151 1536.8683,-187"/>
<text text-anchor="middle" x="1492" y="-164.8" font-family="Times,serif" font-size="14.00" fill="#000000">ViewModule</text>
</g>
<!-- CodeRendererComponent&#45;&gt;ViewModule -->
<g id="edge1" class="edge">
<title>CodeRendererComponent&#45;&gt;ViewModule</title>
<path fill="none" stroke="#000000" d="M2943,-122.1532C2943,-145.7566 2943,-184 2943,-184 2943,-184 1547.0167,-184 1547.0167,-184"/>
<polygon fill="#000000" stroke="#000000" points="1547.0167,-180.5001 1537.0167,-184 1547.0166,-187.5001 1547.0167,-180.5001"/>
</g>
<!-- CsvComponent -->
<g id="node2" class="node">
<title>CsvComponent</title>
<polygon fill="#ffffb3" stroke="#000000" points="2843.6137,-122 2740.3863,-122 2740.3863,-86 2843.6137,-86 2843.6137,-122"/>
<text text-anchor="middle" x="2792" y="-99.8" font-family="Times,serif" font-size="14.00" fill="#000000">CsvComponent</text>
</g>
<!-- CsvComponent&#45;&gt;ViewModule -->
<g id="edge2" class="edge">
<title>CsvComponent&#45;&gt;ViewModule</title>
<path fill="none" stroke="#000000" d="M2792,-122.0109C2792,-144.4852 2792,-180 2792,-180 2792,-180 1547.1265,-180 1547.1265,-180"/>
<polygon fill="#000000" stroke="#000000" points="1547.1265,-176.5001 1537.1265,-180 1547.1264,-183.5001 1547.1265,-176.5001"/>
</g>
<!-- FileFooterComponent -->
<g id="node3" class="node">
<title>FileFooterComponent</title>
<polygon fill="#ffffb3" stroke="#000000" points="2722.6596,-122 2583.3404,-122 2583.3404,-86 2722.6596,-86 2722.6596,-122"/>
<text text-anchor="middle" x="2653" y="-99.8" font-family="Times,serif" font-size="14.00" fill="#000000">FileFooterComponent</text>
</g>
<!-- FileFooterComponent&#45;&gt;ViewModule -->
<g id="edge3" class="edge">
<title>FileFooterComponent&#45;&gt;ViewModule</title>
<path fill="none" stroke="#000000" d="M2653,-122.0449C2653,-143.6623 2653,-177 2653,-177 2653,-177 1547.1562,-177 1547.1562,-177"/>
<polygon fill="#000000" stroke="#000000" points="1547.1563,-173.5001 1537.1562,-177 1547.1562,-180.5001 1547.1563,-173.5001"/>
</g>
<!-- FileRendererComponent -->
<g id="node4" class="node">
<title>FileRendererComponent</title>
<polygon fill="#ffffb3" stroke="#000000" points="2565.413,-122 2410.587,-122 2410.587,-86 2565.413,-86 2565.413,-122"/>
<text text-anchor="middle" x="2488" y="-99.8" font-family="Times,serif" font-size="14.00" fill="#000000">FileRendererComponent</text>
</g>
<!-- FileRendererComponent&#45;&gt;ViewModule -->
<g id="edge4" class="edge">
<title>FileRendererComponent&#45;&gt;ViewModule</title>
<path fill="none" stroke="#000000" d="M2488,-122.1289C2488,-142.5724 2488,-173 2488,-173 2488,-173 1547.057,-173 1547.057,-173"/>
<polygon fill="#000000" stroke="#000000" points="1547.0571,-169.5001 1537.057,-173 1547.057,-176.5001 1547.0571,-169.5001"/>
</g>
<!-- FileTabsComponent -->
<g id="node5" class="node">
<title>FileTabsComponent</title>
<polygon fill="#ffffb3" stroke="#000000" points="2393.323,-122 2262.677,-122 2262.677,-86 2393.323,-86 2393.323,-122"/>
<text text-anchor="middle" x="2328" y="-99.8" font-family="Times,serif" font-size="14.00" fill="#000000">FileTabsComponent</text>
</g>
<!-- FileTabsComponent&#45;&gt;ViewModule -->
<g id="edge5" class="edge">
<title>FileTabsComponent&#45;&gt;ViewModule</title>
<path fill="none" stroke="#000000" d="M2328,-122.1061C2328,-141.3391 2328,-169 2328,-169 2328,-169 1546.947,-169 1546.947,-169"/>
<polygon fill="#000000" stroke="#000000" points="1546.947,-165.5001 1536.947,-169 1546.947,-172.5001 1546.947,-165.5001"/>
</g>
<!-- FileTreeComponent -->
<g id="node6" class="node">
<title>FileTreeComponent</title>
<polygon fill="#ffffb3" stroke="#000000" points="2244.2534,-122 2115.7466,-122 2115.7466,-86 2244.2534,-86 2244.2534,-122"/>
<text text-anchor="middle" x="2180" y="-99.8" font-family="Times,serif" font-size="14.00" fill="#000000">FileTreeComponent</text>
</g>
<!-- FileTreeComponent&#45;&gt;ViewModule -->
<g id="edge6" class="edge">
<title>FileTreeComponent&#45;&gt;ViewModule</title>
<path fill="none" stroke="#000000" d="M2180,-122.2667C2180,-140.5552 2180,-166 2180,-166 2180,-166 1546.8762,-166 1546.8762,-166"/>
<polygon fill="#000000" stroke="#000000" points="1546.8762,-162.5001 1536.8762,-166 1546.8762,-169.5001 1546.8762,-162.5001"/>
</g>
<!-- FileViewerComponent -->
<g id="node7" class="node">
<title>FileViewerComponent</title>
<polygon fill="#ffffb3" stroke="#000000" points="2097.3047,-122 1952.6953,-122 1952.6953,-86 2097.3047,-86 2097.3047,-122"/>
<text text-anchor="middle" x="2025" y="-99.8" font-family="Times,serif" font-size="14.00" fill="#000000">FileViewerComponent</text>
</g>
<!-- FileViewerComponent&#45;&gt;ViewModule -->
<g id="edge7" class="edge">
<title>FileViewerComponent&#45;&gt;ViewModule</title>
<path fill="none" stroke="#000000" d="M2025,-122.0336C2025,-139.0597 2025,-162 2025,-162 2025,-162 1546.9839,-162 1546.9839,-162"/>
<polygon fill="#000000" stroke="#000000" points="1546.984,-158.5001 1536.9839,-162 1546.9839,-165.5001 1546.984,-158.5001"/>
</g>
<!-- ImageRendererComponent -->
<g id="node8" class="node">
<title>ImageRendererComponent</title>
<polygon fill="#ffffb3" stroke="#000000" points="1934.6148,-122 1767.3852,-122 1767.3852,-86 1934.6148,-86 1934.6148,-122"/>
<text text-anchor="middle" x="1851" y="-99.8" font-family="Times,serif" font-size="14.00" fill="#000000">ImageRendererComponent</text>
</g>
<!-- ImageRendererComponent&#45;&gt;ViewModule -->
<g id="edge8" class="edge">
<title>ImageRendererComponent&#45;&gt;ViewModule</title>
<path fill="none" stroke="#000000" d="M1851,-122.0091C1851,-138.0494 1851,-159 1851,-159 1851,-159 1547.1041,-159 1547.1041,-159"/>
<polygon fill="#000000" stroke="#000000" points="1547.1041,-155.5001 1537.1041,-159 1547.1041,-162.5001 1547.1041,-155.5001"/>
</g>
<!-- LanguageSelectionComponent -->
<g id="node9" class="node">
<title>LanguageSelectionComponent</title>
<polygon fill="#ffffb3" stroke="#000000" points="1749.1274,-122 1560.8726,-122 1560.8726,-86 1749.1274,-86 1749.1274,-122"/>
<text text-anchor="middle" x="1655" y="-99.8" font-family="Times,serif" font-size="14.00" fill="#000000">LanguageSelectionComponent</text>
</g>
<!-- LanguageSelectionComponent&#45;&gt;ViewModule -->
<g id="edge9" class="edge">
<title>LanguageSelectionComponent&#45;&gt;ViewModule</title>
<path fill="none" stroke="#000000" d="M1655,-122.1243C1655,-136.7832 1655,-155 1655,-155 1655,-155 1546.972,-155 1546.972,-155"/>
<polygon fill="#000000" stroke="#000000" points="1546.972,-151.5001 1536.972,-155 1546.9719,-158.5001 1546.972,-151.5001"/>
</g>
<!-- PrismDirective -->
<g id="node10" class="node">
<title>PrismDirective</title>
<polygon fill="#ffffb3" stroke="#000000" points="1542.2521,-122 1441.7479,-122 1441.7479,-86 1542.2521,-86 1542.2521,-122"/>
<text text-anchor="middle" x="1492" y="-99.8" font-family="Times,serif" font-size="14.00" fill="#000000">PrismDirective</text>
</g>
<!-- PrismDirective&#45;&gt;ViewModule -->
<g id="edge10" class="edge">
<title>PrismDirective&#45;&gt;ViewModule</title>
<path fill="none" stroke="#000000" d="M1492,-122.1061C1492,-122.1061 1492,-140.991 1492,-140.991"/>
<polygon fill="#000000" stroke="#000000" points="1488.5001,-140.9909 1492,-150.991 1495.5001,-140.991 1488.5001,-140.9909"/>
</g>
<!-- ScrollIntoViewDirective -->
<g id="node11" class="node">
<title>ScrollIntoViewDirective</title>
<polygon fill="#ffffb3" stroke="#000000" points="1423.3919,-122 1268.6081,-122 1268.6081,-86 1423.3919,-86 1423.3919,-122"/>
<text text-anchor="middle" x="1346" y="-99.8" font-family="Times,serif" font-size="14.00" fill="#000000">ScrollIntoViewDirective</text>
</g>
<!-- ScrollIntoViewDirective&#45;&gt;ViewModule -->
<g id="edge11" class="edge">
<title>ScrollIntoViewDirective&#45;&gt;ViewModule</title>
<path fill="none" stroke="#000000" d="M1346,-122.1243C1346,-136.7832 1346,-155 1346,-155 1346,-155 1437.0039,-155 1437.0039,-155"/>
<polygon fill="#000000" stroke="#000000" points="1437.0039,-158.5001 1447.0039,-155 1437.0038,-151.5001 1437.0039,-158.5001"/>
</g>
<!-- ShowdownComponent -->
<g id="node12" class="node">
<title>ShowdownComponent</title>
<polygon fill="#ffffb3" stroke="#000000" points="1251.3286,-122 1106.6714,-122 1106.6714,-86 1251.3286,-86 1251.3286,-122"/>
<text text-anchor="middle" x="1179" y="-99.8" font-family="Times,serif" font-size="14.00" fill="#000000">ShowdownComponent</text>
</g>
<!-- ShowdownComponent&#45;&gt;ViewModule -->
<g id="edge12" class="edge">
<title>ShowdownComponent&#45;&gt;ViewModule</title>
<path fill="none" stroke="#000000" d="M1179,-122.0091C1179,-138.0494 1179,-159 1179,-159 1179,-159 1436.8214,-159 1436.8214,-159"/>
<polygon fill="#000000" stroke="#000000" points="1436.8214,-162.5001 1446.8214,-159 1436.8214,-155.5001 1436.8214,-162.5001"/>
</g>
<!-- ViewComponent -->
<g id="node13" class="node">
<title>ViewComponent</title>
<polygon fill="#ffffb3" stroke="#000000" points="1088.6513,-122 977.3487,-122 977.3487,-86 1088.6513,-86 1088.6513,-122"/>
<text text-anchor="middle" x="1033" y="-99.8" font-family="Times,serif" font-size="14.00" fill="#000000">ViewComponent</text>
</g>
<!-- ViewComponent&#45;&gt;ViewModule -->
<g id="edge13" class="edge">
<title>ViewComponent&#45;&gt;ViewModule</title>
<path fill="none" stroke="#000000" d="M1033,-122.0336C1033,-139.0597 1033,-162 1033,-162 1033,-162 1436.7331,-162 1436.7331,-162"/>
<polygon fill="#000000" stroke="#000000" points="1436.7332,-165.5001 1446.7331,-162 1436.7331,-158.5001 1436.7332,-165.5001"/>
</g>
<!-- MaterialModule -->
<g id="node15" class="node">
<title>MaterialModule</title>
<polygon fill="#8dd3c7" stroke="#000000" points="953.4706,-122 950.4706,-126 929.4706,-126 926.4706,-122 846.5294,-122 846.5294,-86 953.4706,-86 953.4706,-122"/>
<text text-anchor="middle" x="900" y="-99.8" font-family="Times,serif" font-size="14.00" fill="#000000">MaterialModule</text>
</g>
<!-- MaterialModule&#45;&gt;ViewModule -->
<g id="edge14" class="edge">
<title>MaterialModule&#45;&gt;ViewModule</title>
<path fill="none" stroke="#000000" d="M900,-122.2667C900,-140.5552 900,-166 900,-166 900,-166 1437.0179,-166 1437.0179,-166"/>
<polygon fill="#000000" stroke="#000000" points="1437.0179,-169.5001 1447.0179,-166 1437.0178,-162.5001 1437.0179,-169.5001"/>
</g>
<!-- SharedModule -->
<g id="node16" class="node">
<title>SharedModule</title>
<polygon fill="#8dd3c7" stroke="#000000" points="828.4231,-122 825.4231,-126 804.4231,-126 801.4231,-122 729.5769,-122 729.5769,-86 828.4231,-86 828.4231,-122"/>
<text text-anchor="middle" x="779" y="-99.8" font-family="Times,serif" font-size="14.00" fill="#000000">SharedModule</text>
</g>
<!-- SharedModule&#45;&gt;ViewModule -->
<g id="edge15" class="edge">
<title>SharedModule&#45;&gt;ViewModule</title>
<path fill="none" stroke="#000000" d="M779,-122.1061C779,-141.3391 779,-169 779,-169 779,-169 1437.1286,-169 1437.1286,-169"/>
<polygon fill="#000000" stroke="#000000" points="1437.1286,-172.5001 1447.1286,-169 1437.1285,-165.5001 1437.1286,-172.5001"/>
</g>
<!-- ViewRoutingModule -->
<g id="node17" class="node">
<title>ViewRoutingModule</title>
<polygon fill="#8dd3c7" stroke="#000000" points="711.486,-122 708.486,-126 687.486,-126 684.486,-122 576.514,-122 576.514,-86 711.486,-86 711.486,-122"/>
<text text-anchor="middle" x="644" y="-99.8" font-family="Times,serif" font-size="14.00" fill="#000000">ViewRoutingModule</text>
</g>
<!-- ViewRoutingModule&#45;&gt;ViewModule -->
<g id="edge16" class="edge">
<title>ViewRoutingModule&#45;&gt;ViewModule</title>
<path fill="none" stroke="#000000" d="M644,-122.1289C644,-142.5724 644,-173 644,-173 644,-173 1437.0066,-173 1437.0066,-173"/>
<polygon fill="#000000" stroke="#000000" points="1437.0066,-176.5001 1447.0066,-173 1437.0065,-169.5001 1437.0066,-176.5001"/>
</g>
<!-- FileLoaderService -->
<g id="node18" class="node">
<title>FileLoaderService</title>
<ellipse fill="#fdb462" stroke="#000000" cx="471" cy="-104" rx="82.2179" ry="18"/>
<text text-anchor="middle" x="471" y="-99.8" font-family="Times,serif" font-size="14.00" fill="#000000">FileLoaderService</text>
</g>
<!-- FileLoaderService&#45;&gt;ViewModule -->
<g id="edge17" class="edge">
<title>FileLoaderService&#45;&gt;ViewModule</title>
<path fill="none" stroke="#000000" d="M471,-122.0449C471,-143.6623 471,-177 471,-177 471,-177 1436.8115,-177 1436.8115,-177"/>
<polygon fill="#000000" stroke="#000000" points="1436.8115,-180.5001 1446.8115,-177 1436.8115,-173.5001 1436.8115,-180.5001"/>
</g>
<!-- LoadingService -->
<g id="node19" class="node">
<title>LoadingService</title>
<ellipse fill="#fdb462" stroke="#000000" cx="298" cy="-104" rx="72.3516" ry="18"/>
<text text-anchor="middle" x="298" y="-99.8" font-family="Times,serif" font-size="14.00" fill="#000000">LoadingService</text>
</g>
<!-- LoadingService&#45;&gt;ViewModule -->
<g id="edge18" class="edge">
<title>LoadingService&#45;&gt;ViewModule</title>
<path fill="none" stroke="#000000" d="M298,-122.0109C298,-144.4852 298,-180 298,-180 298,-180 1437.013,-180 1437.013,-180"/>
<polygon fill="#000000" stroke="#000000" points="1437.0131,-183.5001 1447.013,-180 1437.013,-176.5001 1437.0131,-183.5001"/>
</g>
<!-- RenderCacheService -->
<g id="node20" class="node">
<title>RenderCacheService</title>
<ellipse fill="#fdb462" stroke="#000000" cx="116" cy="-104" rx="92.0123" ry="18"/>
<text text-anchor="middle" x="116" y="-99.8" font-family="Times,serif" font-size="14.00" fill="#000000">RenderCacheService</text>
</g>
<!-- RenderCacheService&#45;&gt;ViewModule -->
<g id="edge19" class="edge">
<title>RenderCacheService&#45;&gt;ViewModule</title>
<path fill="none" stroke="#000000" d="M116,-122.1532C116,-145.7566 116,-184 116,-184 116,-184 1437.0003,-184 1437.0003,-184"/>
<polygon fill="#000000" stroke="#000000" points="1437.0004,-187.5001 1447.0003,-184 1437.0003,-180.5001 1437.0004,-187.5001"/>
</g>
</g>
</svg>
