<?xml version="1.0" encoding="UTF-8" standalone="no"?>
<!DOCTYPE svg PUBLIC "-//W3C//DTD SVG 1.1//EN"
 "http://www.w3.org/Graphics/SVG/1.1/DTD/svg11.dtd">
<!-- Generated by graphviz version 2.40.1 (20161225.0304)
 -->
<!-- Title: dependencies Pages: 1 -->
<svg width="577pt" height="211pt"
 viewBox="0.00 0.00 577.00 211.00" xmlns="http://www.w3.org/2000/svg" xmlns:xlink="http://www.w3.org/1999/xlink">
<g id="graph0" class="graph" transform="scale(1 1) rotate(0) translate(4 207)">
<title>dependencies</title>
<polygon fill="#ffffff" stroke="transparent" points="-4,4 -4,-207 573,-207 573,4 -4,4"/>
<text text-anchor="start" x="263.5091" y="-42.4" font-family="sans-serif" font-weight="bold" font-size="14.00" fill="#000000">Legend</text>
<polygon fill="#ffffb3" stroke="transparent" points="50.5,-10 50.5,-30 70.5,-30 70.5,-10 50.5,-10"/>
<text text-anchor="start" x="74.129" y="-15.4" font-family="sans-serif" font-size="14.00" fill="#000000"> &#160;Declarations</text>
<polygon fill="#8dd3c7" stroke="transparent" points="163.5,-10 163.5,-30 183.5,-30 183.5,-10 163.5,-10"/>
<text text-anchor="start" x="187.2251" y="-15.4" font-family="sans-serif" font-size="14.00" fill="#000000"> &#160;Module</text>
<polygon fill="#80b1d3" stroke="transparent" points="249.5,-10 249.5,-30 269.5,-30 269.5,-10 249.5,-10"/>
<text text-anchor="start" x="273.2812" y="-15.4" font-family="sans-serif" font-size="14.00" fill="#000000"> &#160;Bootstrap</text>
<polygon fill="#fdb462" stroke="transparent" points="346.5,-10 346.5,-30 366.5,-30 366.5,-10 346.5,-10"/>
<text text-anchor="start" x="370.1732" y="-15.4" font-family="sans-serif" font-size="14.00" fill="#000000"> &#160;Providers</text>
<polygon fill="#fb8072" stroke="transparent" points="442.5,-10 442.5,-30 462.5,-30 462.5,-10 442.5,-10"/>
<text text-anchor="start" x="466.2258" y="-15.4" font-family="sans-serif" font-size="14.00" fill="#000000"> &#160;Exports</text>
<g id="clust1" class="cluster">
<title>cluster_AboutModule</title>
<polygon fill="none" stroke="#000000" stroke-dasharray="1,5" points="8,-70 8,-195 561,-195 561,-70 8,-70"/>
</g>
<g id="clust2" class="cluster">
<title>cluster_AboutModule_declarations</title>
<polygon fill="none" stroke="#000000" points="421,-78 421,-130 553,-130 553,-78 421,-78"/>
</g>
<g id="clust4" class="cluster">
<title>cluster_AboutModule_imports</title>
<polygon fill="none" stroke="#000000" points="16,-78 16,-130 413,-130 413,-78 16,-78"/>
</g>
<!-- AboutComponent -->
<g id="node1" class="node">
<title>AboutComponent</title>
<polygon fill="#ffffb3" stroke="#000000" points="545.3301,-122 428.6699,-122 428.6699,-86 545.3301,-86 545.3301,-122"/>
<text text-anchor="middle" x="487" y="-99.8" font-family="Times,serif" font-size="14.00" fill="#000000">AboutComponent</text>
</g>
<!-- AboutModule -->
<g id="node2" class="node">
<title>AboutModule</title>
<polygon fill="#8dd3c7" stroke="#000000" points="311.0481,-187 308.0481,-191 287.0481,-191 284.0481,-187 216.9519,-187 216.9519,-151 311.0481,-151 311.0481,-187"/>
<text text-anchor="middle" x="264" y="-164.8" font-family="Times,serif" font-size="14.00" fill="#000000">AboutModule</text>
</g>
<!-- AboutComponent&#45;&gt;AboutModule -->
<g id="edge1" class="edge">
<title>AboutComponent&#45;&gt;AboutModule</title>
<path fill="none" stroke="#000000" d="M487,-122.1061C487,-141.3391 487,-169 487,-169 487,-169 321.2926,-169 321.2926,-169"/>
<polygon fill="#000000" stroke="#000000" points="321.2926,-165.5001 311.2926,-169 321.2925,-172.5001 321.2926,-165.5001"/>
</g>
<!-- AboutRoutingModule -->
<g id="node3" class="node">
<title>AboutRoutingModule</title>
<polygon fill="#8dd3c7" stroke="#000000" points="404.6652,-122 401.6652,-126 380.6652,-126 377.6652,-122 265.3348,-122 265.3348,-86 404.6652,-86 404.6652,-122"/>
<text text-anchor="middle" x="335" y="-99.8" font-family="Times,serif" font-size="14.00" fill="#000000">AboutRoutingModule</text>
</g>
<!-- AboutRoutingModule&#45;&gt;AboutModule -->
<g id="edge2" class="edge">
<title>AboutRoutingModule&#45;&gt;AboutModule</title>
<path fill="none" stroke="#000000" d="M288.2206,-122.1061C288.2206,-122.1061 288.2206,-140.991 288.2206,-140.991"/>
<polygon fill="#000000" stroke="#000000" points="284.7206,-140.9909 288.2206,-150.991 291.7206,-140.991 284.7206,-140.9909"/>
</g>
<!-- MaterialModule -->
<g id="node4" class="node">
<title>MaterialModule</title>
<polygon fill="#8dd3c7" stroke="#000000" points="247.4706,-122 244.4706,-126 223.4706,-126 220.4706,-122 140.5294,-122 140.5294,-86 247.4706,-86 247.4706,-122"/>
<text text-anchor="middle" x="194" y="-99.8" font-family="Times,serif" font-size="14.00" fill="#000000">MaterialModule</text>
</g>
<!-- MaterialModule&#45;&gt;AboutModule -->
<g id="edge3" class="edge">
<title>MaterialModule&#45;&gt;AboutModule</title>
<path fill="none" stroke="#000000" d="M232.1059,-122.1061C232.1059,-122.1061 232.1059,-140.991 232.1059,-140.991"/>
<polygon fill="#000000" stroke="#000000" points="228.606,-140.9909 232.1059,-150.991 235.606,-140.991 228.606,-140.9909"/>
</g>
<!-- SharedModule -->
<g id="node5" class="node">
<title>SharedModule</title>
<polygon fill="#8dd3c7" stroke="#000000" points="122.4231,-122 119.4231,-126 98.4231,-126 95.4231,-122 23.5769,-122 23.5769,-86 122.4231,-86 122.4231,-122"/>
<text text-anchor="middle" x="73" y="-99.8" font-family="Times,serif" font-size="14.00" fill="#000000">SharedModule</text>
</g>
<!-- SharedModule&#45;&gt;AboutModule -->
<g id="edge4" class="edge">
<title>SharedModule&#45;&gt;AboutModule</title>
<path fill="none" stroke="#000000" d="M73,-122.1061C73,-141.3391 73,-169 73,-169 73,-169 206.7865,-169 206.7865,-169"/>
<polygon fill="#000000" stroke="#000000" points="206.7865,-172.5001 216.7865,-169 206.7865,-165.5001 206.7865,-172.5001"/>
</g>
</g>
</svg>
