<?xml version="1.0" encoding="UTF-8" standalone="no"?>
<!DOCTYPE svg PUBLIC "-//W3C//DTD SVG 1.1//EN"
 "http://www.w3.org/Graphics/SVG/1.1/DTD/svg11.dtd">
<!-- Generated by graphviz version 2.40.1 (20161225.0304)
 -->
<!-- Title: dependencies Pages: 1 -->
<svg width="713pt" height="284pt"
 viewBox="0.00 0.00 713.00 284.00" xmlns="http://www.w3.org/2000/svg" xmlns:xlink="http://www.w3.org/1999/xlink">
<g id="graph0" class="graph" transform="scale(1 1) rotate(0) translate(4 280)">
<title>dependencies</title>
<polygon fill="#ffffff" stroke="transparent" points="-4,4 -4,-280 709,-280 709,4 -4,4"/>
<text text-anchor="start" x="331.5091" y="-42.4" font-family="sans-serif" font-weight="bold" font-size="14.00" fill="#000000">Legend</text>
<polygon fill="#ffffb3" stroke="transparent" points="118.5,-10 118.5,-30 138.5,-30 138.5,-10 118.5,-10"/>
<text text-anchor="start" x="142.129" y="-15.4" font-family="sans-serif" font-size="14.00" fill="#000000"> &#160;Declarations</text>
<polygon fill="#8dd3c7" stroke="transparent" points="231.5,-10 231.5,-30 251.5,-30 251.5,-10 231.5,-10"/>
<text text-anchor="start" x="255.2251" y="-15.4" font-family="sans-serif" font-size="14.00" fill="#000000"> &#160;Module</text>
<polygon fill="#80b1d3" stroke="transparent" points="317.5,-10 317.5,-30 337.5,-30 337.5,-10 317.5,-10"/>
<text text-anchor="start" x="341.2812" y="-15.4" font-family="sans-serif" font-size="14.00" fill="#000000"> &#160;Bootstrap</text>
<polygon fill="#fdb462" stroke="transparent" points="414.5,-10 414.5,-30 434.5,-30 434.5,-10 414.5,-10"/>
<text text-anchor="start" x="438.1732" y="-15.4" font-family="sans-serif" font-size="14.00" fill="#000000"> &#160;Providers</text>
<polygon fill="#fb8072" stroke="transparent" points="510.5,-10 510.5,-30 530.5,-30 530.5,-10 510.5,-10"/>
<text text-anchor="start" x="534.2258" y="-15.4" font-family="sans-serif" font-size="14.00" fill="#000000"> &#160;Exports</text>
<g id="clust1" class="cluster">
<title>cluster_CoreModule</title>
<polygon fill="none" stroke="#000000" stroke-dasharray="1,5" points="8,-70 8,-268 697,-268 697,-70 8,-70"/>
</g>
<g id="clust2" class="cluster">
<title>cluster_CoreModule_declarations</title>
<polygon fill="none" stroke="#000000" points="413,-78 413,-130 689,-130 689,-78 413,-78"/>
</g>
<g id="clust5" class="cluster">
<title>cluster_CoreModule_imports</title>
<polygon fill="none" stroke="#000000" points="16,-78 16,-130 405,-130 405,-78 16,-78"/>
</g>
<g id="clust6" class="cluster">
<title>cluster_CoreModule_exports</title>
<polygon fill="none" stroke="#000000" points="269,-208 269,-260 393,-260 393,-208 269,-208"/>
</g>
<!-- DragSizerComponent -->
<g id="node1" class="node">
<title>DragSizerComponent</title>
<polygon fill="#ffffb3" stroke="#000000" points="681.0772,-122 542.9228,-122 542.9228,-86 681.0772,-86 681.0772,-122"/>
<text text-anchor="middle" x="612" y="-99.8" font-family="Times,serif" font-size="14.00" fill="#000000">DragSizerComponent</text>
</g>
<!-- CoreModule -->
<g id="node3" class="node">
<title>CoreModule</title>
<polygon fill="#8dd3c7" stroke="#000000" points="374.2619,-187 371.2619,-191 350.2619,-191 347.2619,-187 287.7381,-187 287.7381,-151 374.2619,-151 374.2619,-187"/>
<text text-anchor="middle" x="331" y="-164.8" font-family="Times,serif" font-size="14.00" fill="#000000">CoreModule</text>
</g>
<!-- DragSizerComponent&#45;&gt;CoreModule -->
<g id="edge1" class="edge">
<title>DragSizerComponent&#45;&gt;CoreModule</title>
<path fill="none" stroke="#000000" d="M612,-122.2843C612,-143.3211 612,-175 612,-175 612,-175 384.2904,-175 384.2904,-175"/>
<polygon fill="#000000" stroke="#000000" points="384.2905,-171.5001 374.2904,-175 384.2904,-178.5001 384.2905,-171.5001"/>
</g>
<!-- NavComponent -->
<g id="node2" class="node">
<title>NavComponent</title>
<polygon fill="#ffffb3" stroke="#000000" points="525.1542,-122 420.8458,-122 420.8458,-86 525.1542,-86 525.1542,-122"/>
<text text-anchor="middle" x="473" y="-99.8" font-family="Times,serif" font-size="14.00" fill="#000000">NavComponent</text>
</g>
<!-- NavComponent&#45;&gt;CoreModule -->
<g id="edge2" class="edge">
<title>NavComponent&#45;&gt;CoreModule</title>
<path fill="none" stroke="#000000" d="M473,-122.0225C473,-139.3734 473,-163 473,-163 473,-163 384.3763,-163 384.3763,-163"/>
<polygon fill="#000000" stroke="#000000" points="384.3763,-159.5001 374.3763,-163 384.3762,-166.5001 384.3763,-159.5001"/>
</g>
<!-- NavComponent  -->
<g id="node7" class="node">
<title>NavComponent </title>
<polygon fill="#fb8072" stroke="#000000" points="385.1537,-252 276.8463,-252 276.8463,-216 385.1537,-216 385.1537,-252"/>
<text text-anchor="middle" x="331" y="-229.8" font-family="Times,serif" font-size="14.00" fill="#000000">NavComponent </text>
</g>
<!-- CoreModule&#45;&gt;NavComponent  -->
<g id="edge6" class="edge">
<title>CoreModule&#45;&gt;NavComponent </title>
<path fill="none" stroke="#000000" stroke-dasharray="5,2" d="M331,-187.1061C331,-187.1061 331,-205.991 331,-205.991"/>
<polygon fill="#000000" stroke="#000000" points="327.5001,-205.9909 331,-215.991 334.5001,-205.991 327.5001,-205.9909"/>
</g>
<!-- CoreRoutingModule -->
<g id="node4" class="node">
<title>CoreRoutingModule</title>
<polygon fill="#8dd3c7" stroke="#000000" points="396.8795,-122 393.8795,-126 372.8795,-126 369.8795,-122 265.1205,-122 265.1205,-86 396.8795,-86 396.8795,-122"/>
<text text-anchor="middle" x="331" y="-99.8" font-family="Times,serif" font-size="14.00" fill="#000000">CoreRoutingModule</text>
</g>
<!-- CoreRoutingModule&#45;&gt;CoreModule -->
<g id="edge3" class="edge">
<title>CoreRoutingModule&#45;&gt;CoreModule</title>
<path fill="none" stroke="#000000" d="M331,-122.1061C331,-122.1061 331,-140.991 331,-140.991"/>
<polygon fill="#000000" stroke="#000000" points="327.5001,-140.9909 331,-150.991 334.5001,-140.991 327.5001,-140.9909"/>
</g>
<!-- MaterialModule -->
<g id="node5" class="node">
<title>MaterialModule</title>
<polygon fill="#8dd3c7" stroke="#000000" points="247.4706,-122 244.4706,-126 223.4706,-126 220.4706,-122 140.5294,-122 140.5294,-86 247.4706,-86 247.4706,-122"/>
<text text-anchor="middle" x="194" y="-99.8" font-family="Times,serif" font-size="14.00" fill="#000000">MaterialModule</text>
</g>
<!-- MaterialModule&#45;&gt;CoreModule -->
<g id="edge4" class="edge">
<title>MaterialModule&#45;&gt;CoreModule</title>
<path fill="none" stroke="#000000" d="M194,-122.0225C194,-139.3734 194,-163 194,-163 194,-163 277.6523,-163 277.6523,-163"/>
<polygon fill="#000000" stroke="#000000" points="277.6524,-166.5001 287.6523,-163 277.6523,-159.5001 277.6524,-166.5001"/>
</g>
<!-- SharedModule -->
<g id="node6" class="node">
<title>SharedModule</title>
<polygon fill="#8dd3c7" stroke="#000000" points="122.4231,-122 119.4231,-126 98.4231,-126 95.4231,-122 23.5769,-122 23.5769,-86 122.4231,-86 122.4231,-122"/>
<text text-anchor="middle" x="73" y="-99.8" font-family="Times,serif" font-size="14.00" fill="#000000">SharedModule</text>
</g>
<!-- SharedModule&#45;&gt;CoreModule -->
<g id="edge5" class="edge">
<title>SharedModule&#45;&gt;CoreModule</title>
<path fill="none" stroke="#000000" d="M73,-122.2843C73,-143.3211 73,-175 73,-175 73,-175 277.5256,-175 277.5256,-175"/>
<polygon fill="#000000" stroke="#000000" points="277.5256,-178.5001 287.5256,-175 277.5255,-171.5001 277.5256,-178.5001"/>
</g>
</g>
</svg>
