<?xml version="1.0" encoding="UTF-8" standalone="no"?>
<!DOCTYPE svg PUBLIC "-//W3C//DTD SVG 1.1//EN"
 "http://www.w3.org/Graphics/SVG/1.1/DTD/svg11.dtd">
<!-- Generated by graphviz version 2.40.1 (20161225.0304)
 -->
<!-- Title: dependencies Pages: 1 -->
<svg width="5601pt" height="360pt"
 viewBox="0.00 0.00 5601.00 360.00" xmlns="http://www.w3.org/2000/svg" xmlns:xlink="http://www.w3.org/1999/xlink">
<g id="graph0" class="graph" transform="scale(1 1) rotate(0) translate(4 356)">
<title>dependencies</title>
<polygon fill="#ffffff" stroke="transparent" points="-4,4 -4,-356 5597,-356 5597,4 -4,4"/>
<text text-anchor="start" x="2775.5091" y="-42.4" font-family="sans-serif" font-weight="bold" font-size="14.00" fill="#000000">Legend</text>
<polygon fill="#ffffb3" stroke="transparent" points="2562.5,-10 2562.5,-30 2582.5,-30 2582.5,-10 2562.5,-10"/>
<text text-anchor="start" x="2586.129" y="-15.4" font-family="sans-serif" font-size="14.00" fill="#000000"> &#160;Declarations</text>
<polygon fill="#8dd3c7" stroke="transparent" points="2675.5,-10 2675.5,-30 2695.5,-30 2695.5,-10 2675.5,-10"/>
<text text-anchor="start" x="2699.2251" y="-15.4" font-family="sans-serif" font-size="14.00" fill="#000000"> &#160;Module</text>
<polygon fill="#80b1d3" stroke="transparent" points="2761.5,-10 2761.5,-30 2781.5,-30 2781.5,-10 2761.5,-10"/>
<text text-anchor="start" x="2785.2812" y="-15.4" font-family="sans-serif" font-size="14.00" fill="#000000"> &#160;Bootstrap</text>
<polygon fill="#fdb462" stroke="transparent" points="2858.5,-10 2858.5,-30 2878.5,-30 2878.5,-10 2858.5,-10"/>
<text text-anchor="start" x="2882.1732" y="-15.4" font-family="sans-serif" font-size="14.00" fill="#000000"> &#160;Providers</text>
<polygon fill="#fb8072" stroke="transparent" points="2954.5,-10 2954.5,-30 2974.5,-30 2974.5,-10 2954.5,-10"/>
<text text-anchor="start" x="2978.2258" y="-15.4" font-family="sans-serif" font-size="14.00" fill="#000000"> &#160;Exports</text>
<g id="clust1" class="cluster">
<title>cluster_AboutModule</title>
<polygon fill="none" stroke="#000000" stroke-dasharray="1,5" points="158,-70 158,-206 586,-206 586,-70 158,-70"/>
</g>
<g id="clust2" class="cluster">
<title>cluster_AboutModule_declarations</title>
<polygon fill="none" stroke="#000000" points="166,-78 166,-130 298,-130 298,-78 166,-78"/>
</g>
<g id="clust4" class="cluster">
<title>cluster_AboutModule_imports</title>
<polygon fill="none" stroke="#000000" points="306,-78 306,-130 578,-130 578,-78 306,-78"/>
</g>
<g id="clust14" class="cluster">
<title>cluster_AppModule</title>
<polygon fill="none" stroke="#000000" stroke-dasharray="1,5" points="813,-146 813,-344 1193,-344 1193,-146 813,-146"/>
</g>
<g id="clust15" class="cluster">
<title>cluster_AppModule_declarations</title>
<polygon fill="none" stroke="#000000" points="1063,-154 1063,-206 1185,-206 1185,-154 1063,-154"/>
</g>
<g id="clust17" class="cluster">
<title>cluster_AppModule_imports</title>
<polygon fill="none" stroke="#000000" points="821,-154 821,-206 1055,-206 1055,-154 821,-154"/>
</g>
<g id="clust19" class="cluster">
<title>cluster_AppModule_bootstrap</title>
<polygon fill="none" stroke="#000000" points="942,-284 942,-336 1066,-336 1066,-284 942,-284"/>
</g>
<g id="clust27" class="cluster">
<title>cluster_CoreModule</title>
<polygon fill="none" stroke="#000000" stroke-dasharray="1,5" points="594,-70 594,-138 1476,-138 1476,-70 594,-70"/>
</g>
<g id="clust28" class="cluster">
<title>cluster_CoreModule_declarations</title>
<polygon fill="none" stroke="#000000" points="1192,-78 1192,-130 1468,-130 1468,-78 1192,-78"/>
</g>
<g id="clust31" class="cluster">
<title>cluster_CoreModule_imports</title>
<polygon fill="none" stroke="#000000" points="930,-78 930,-130 1184,-130 1184,-78 930,-78"/>
</g>
<g id="clust32" class="cluster">
<title>cluster_CoreModule_exports</title>
<polygon fill="none" stroke="#000000" points="798,-78 798,-130 922,-130 922,-78 798,-78"/>
</g>
<g id="clust34" class="cluster">
<title>cluster_CoreModule_providers</title>
<polygon fill="none" stroke="#000000" points="602,-78 602,-130 790,-130 790,-78 602,-78"/>
</g>
<g id="clust47" class="cluster">
<title>cluster_HomeModule</title>
<polygon fill="none" stroke="#000000" stroke-dasharray="1,5" points="1484,-70 1484,-206 1794,-206 1794,-70 1484,-70"/>
</g>
<g id="clust48" class="cluster">
<title>cluster_HomeModule_declarations</title>
<polygon fill="none" stroke="#000000" points="1654,-78 1654,-130 1786,-130 1786,-78 1654,-78"/>
</g>
<g id="clust50" class="cluster">
<title>cluster_HomeModule_imports</title>
<polygon fill="none" stroke="#000000" points="1492,-78 1492,-130 1646,-130 1646,-78 1492,-78"/>
</g>
<g id="clust60" class="cluster">
<title>cluster_LoginModule</title>
<polygon fill="none" stroke="#000000" stroke-dasharray="1,5" points="1802,-70 1802,-206 2283,-206 2283,-70 1802,-70"/>
</g>
<g id="clust61" class="cluster">
<title>cluster_LoginModule_declarations</title>
<polygon fill="none" stroke="#000000" points="1972,-78 1972,-130 2275,-130 2275,-78 1972,-78"/>
</g>
<g id="clust64" class="cluster">
<title>cluster_LoginModule_imports</title>
<polygon fill="none" stroke="#000000" points="1810,-78 1810,-130 1964,-130 1964,-78 1810,-78"/>
</g>
<g id="clust80" class="cluster">
<title>cluster_SelectModule</title>
<polygon fill="none" stroke="#000000" stroke-dasharray="1,5" points="2291,-70 2291,-206 2951,-206 2951,-70 2291,-70"/>
</g>
<g id="clust81" class="cluster">
<title>cluster_SelectModule_declarations</title>
<polygon fill="none" stroke="#000000" points="2461,-78 2461,-130 2943,-130 2943,-78 2461,-78"/>
</g>
<g id="clust85" class="cluster">
<title>cluster_SelectModule_imports</title>
<polygon fill="none" stroke="#000000" points="2299,-78 2299,-130 2453,-130 2453,-78 2299,-78"/>
</g>
<g id="clust95" class="cluster">
<title>cluster_SharedModule</title>
<polygon fill="none" stroke="#000000" stroke-dasharray="1,5" points="8,-146 8,-214 150,-214 150,-146 8,-146"/>
</g>
<g id="clust98" class="cluster">
<title>cluster_SharedModule_exports</title>
<polygon fill="none" stroke="#000000" points="16,-154 16,-206 142,-206 142,-154 16,-154"/>
</g>
<g id="clust101" class="cluster">
<title>cluster_ViewModule</title>
<polygon fill="none" stroke="#000000" stroke-dasharray="1,5" points="2959,-70 2959,-206 5585,-206 5585,-70 2959,-70"/>
</g>
<g id="clust102" class="cluster">
<title>cluster_ViewModule_declarations</title>
<polygon fill="none" stroke="#000000" points="3515,-78 3515,-130 5577,-130 5577,-78 3515,-78"/>
</g>
<g id="clust116" class="cluster">
<title>cluster_ViewModule_imports</title>
<polygon fill="none" stroke="#000000" points="3357,-78 3357,-130 3507,-130 3507,-78 3357,-78"/>
</g>
<g id="clust119" class="cluster">
<title>cluster_ViewModule_providers</title>
<polygon fill="none" stroke="#000000" points="2967,-78 2967,-130 3349,-130 3349,-78 2967,-78"/>
</g>
<!-- AboutComponent -->
<g id="node1" class="node">
<title>AboutComponent</title>
<polygon fill="#ffffb3" stroke="#000000" points="290.3301,-122 173.6699,-122 173.6699,-86 290.3301,-86 290.3301,-122"/>
<text text-anchor="middle" x="232" y="-99.8" font-family="Times,serif" font-size="14.00" fill="#000000">AboutComponent</text>
</g>
<!-- AboutModule -->
<g id="node2" class="node">
<title>AboutModule</title>
<polygon fill="#8dd3c7" stroke="#000000" points="431.0481,-198 428.0481,-202 407.0481,-202 404.0481,-198 336.9519,-198 336.9519,-162 431.0481,-162 431.0481,-198"/>
<text text-anchor="middle" x="384" y="-175.8" font-family="Times,serif" font-size="14.00" fill="#000000">AboutModule</text>
</g>
<!-- AboutComponent&#45;&gt;AboutModule -->
<g id="edge1" class="edge">
<title>AboutComponent&#45;&gt;AboutModule</title>
<path fill="none" stroke="#000000" d="M232,-122.0109C232,-144.4852 232,-180 232,-180 232,-180 326.7395,-180 326.7395,-180"/>
<polygon fill="#000000" stroke="#000000" points="326.7395,-183.5001 336.7395,-180 326.7394,-176.5001 326.7395,-183.5001"/>
</g>
<!-- AboutRoutingModule -->
<g id="node3" class="node">
<title>AboutRoutingModule</title>
<polygon fill="#8dd3c7" stroke="#000000" points="453.6652,-122 450.6652,-126 429.6652,-126 426.6652,-122 314.3348,-122 314.3348,-86 453.6652,-86 453.6652,-122"/>
<text text-anchor="middle" x="384" y="-99.8" font-family="Times,serif" font-size="14.00" fill="#000000">AboutRoutingModule</text>
</g>
<!-- AboutRoutingModule&#45;&gt;AboutModule -->
<g id="edge2" class="edge">
<title>AboutRoutingModule&#45;&gt;AboutModule</title>
<path fill="none" stroke="#000000" d="M384,-122.0109C384,-122.0109 384,-151.855 384,-151.855"/>
<polygon fill="#000000" stroke="#000000" points="380.5001,-151.8549 384,-161.855 387.5001,-151.855 380.5001,-151.8549"/>
</g>
<!-- SharedModule -->
<g id="node4" class="node">
<title>SharedModule</title>
<polygon fill="#8dd3c7" stroke="#000000" points="570.4231,-122 567.4231,-126 546.4231,-126 543.4231,-122 471.5769,-122 471.5769,-86 570.4231,-86 570.4231,-122"/>
<text text-anchor="middle" x="521" y="-99.8" font-family="Times,serif" font-size="14.00" fill="#000000">SharedModule</text>
</g>
<!-- SharedModule&#45;&gt;AboutModule -->
<g id="edge3" class="edge">
<title>SharedModule&#45;&gt;AboutModule</title>
<path fill="none" stroke="#000000" d="M557.9083,-122.0109C557.9083,-144.4852 557.9083,-180 557.9083,-180 557.9083,-180 441.0621,-180 441.0621,-180"/>
<polygon fill="#000000" stroke="#000000" points="441.0621,-176.5001 431.0621,-180 441.0621,-183.5001 441.0621,-176.5001"/>
</g>
<!-- CoreModule -->
<g id="node7" class="node">
<title>CoreModule</title>
<polygon fill="#8dd3c7" stroke="#000000" points="1047.2619,-198 1044.2619,-202 1023.2619,-202 1020.2619,-198 960.7381,-198 960.7381,-162 1047.2619,-162 1047.2619,-198"/>
<text text-anchor="middle" x="1004" y="-175.8" font-family="Times,serif" font-size="14.00" fill="#000000">CoreModule</text>
</g>
<!-- SharedModule&#45;&gt;CoreModule -->
<g id="edge12" class="edge">
<title>SharedModule&#45;&gt;CoreModule</title>
<path fill="none" stroke="#000000" d="M496.3945,-122.0439C496.3945,-134.5633 496.3945,-149 496.3945,-149 496.3945,-149 971.4644,-149 971.4644,-149 971.4644,-149 971.4644,-151.9672 971.4644,-151.9672"/>
<polygon fill="#000000" stroke="#000000" points="967.9645,-151.9671 971.4644,-161.9672 974.9645,-151.9672 967.9645,-151.9671"/>
</g>
<!-- HomeModule -->
<g id="node17" class="node">
<title>HomeModule</title>
<polygon fill="#8dd3c7" stroke="#000000" points="1615.7619,-198 1612.7619,-202 1591.7619,-202 1588.7619,-198 1522.2381,-198 1522.2381,-162 1615.7619,-162 1615.7619,-198"/>
<text text-anchor="middle" x="1569" y="-175.8" font-family="Times,serif" font-size="14.00" fill="#000000">HomeModule</text>
</g>
<!-- SharedModule&#45;&gt;HomeModule -->
<g id="edge17" class="edge">
<title>SharedModule&#45;&gt;HomeModule</title>
<path fill="none" stroke="#000000" d="M508.6972,-122.2434C508.6972,-129.4297 508.6972,-136 508.6972,-136 508.6972,-136 1553.3731,-136 1553.3731,-136 1553.3731,-136 1553.3731,-151.8495 1553.3731,-151.8495"/>
<polygon fill="#000000" stroke="#000000" points="1549.8732,-151.8494 1553.3731,-161.8495 1556.8732,-151.8495 1549.8732,-151.8494"/>
</g>
<!-- LoginModule -->
<g id="node21" class="node">
<title>LoginModule</title>
<polygon fill="#8dd3c7" stroke="#000000" points="2008.493,-198 2005.493,-202 1984.493,-202 1981.493,-198 1915.507,-198 1915.507,-162 2008.493,-162 2008.493,-198"/>
<text text-anchor="middle" x="1962" y="-175.8" font-family="Times,serif" font-size="14.00" fill="#000000">LoginModule</text>
</g>
<!-- SharedModule&#45;&gt;LoginModule -->
<g id="edge21" class="edge">
<title>SharedModule&#45;&gt;LoginModule</title>
<path fill="none" stroke="#000000" d="M521,-122.207C521,-127.5549 521,-132 521,-132 521,-132 1929.0208,-132 1929.0208,-132 1929.0208,-132 1929.0208,-151.8533 1929.0208,-151.8533"/>
<polygon fill="#000000" stroke="#000000" points="1925.5209,-151.8532 1929.0208,-161.8533 1932.5209,-151.8533 1925.5209,-151.8532"/>
</g>
<!-- SelectModule -->
<g id="node26" class="node">
<title>SelectModule</title>
<polygon fill="#8dd3c7" stroke="#000000" points="2599.7577,-198 2596.7577,-202 2575.7577,-202 2572.7577,-198 2506.2423,-198 2506.2423,-162 2599.7577,-162 2599.7577,-198"/>
<text text-anchor="middle" x="2553" y="-175.8" font-family="Times,serif" font-size="14.00" fill="#000000">SelectModule</text>
</g>
<!-- SharedModule&#45;&gt;SelectModule -->
<g id="edge26" class="edge">
<title>SharedModule&#45;&gt;SelectModule</title>
<path fill="none" stroke="#000000" d="M533.3028,-122.1686C533.3028,-126.0459 533.3028,-129 533.3028,-129 533.3028,-129 2537.3738,-129 2537.3738,-129 2537.3738,-129 2537.3738,-151.8757 2537.3738,-151.8757"/>
<polygon fill="#000000" stroke="#000000" points="2533.8739,-151.8757 2537.3738,-161.8757 2540.8739,-151.8757 2533.8739,-151.8757"/>
</g>
<!-- MaterialModule  -->
<g id="node28" class="node">
<title>MaterialModule </title>
<polygon fill="#fb8072" stroke="#000000" points="134.4716,-198 23.5284,-198 23.5284,-162 134.4716,-162 134.4716,-198"/>
<text text-anchor="middle" x="79" y="-175.8" font-family="Times,serif" font-size="14.00" fill="#000000">MaterialModule </text>
</g>
<!-- SharedModule&#45;&gt;MaterialModule  -->
<g id="edge27" class="edge">
<title>SharedModule&#45;&gt;MaterialModule </title>
<path fill="none" stroke="#000000" stroke-dasharray="5,2" d="M484.0917,-122.32C484.0917,-130.7883 484.0917,-139 484.0917,-139 484.0917,-139 79,-139 79,-139 79,-139 79,-151.8975 79,-151.8975"/>
<polygon fill="#000000" stroke="#000000" points="75.5001,-151.8974 79,-161.8975 82.5001,-151.8975 75.5001,-151.8974"/>
</g>
<!-- ViewModule -->
<g id="node42" class="node">
<title>ViewModule</title>
<polygon fill="#8dd3c7" stroke="#000000" points="4305.8683,-198 4302.8683,-202 4281.8683,-202 4278.8683,-198 4216.1317,-198 4216.1317,-162 4305.8683,-162 4305.8683,-198"/>
<text text-anchor="middle" x="4261" y="-175.8" font-family="Times,serif" font-size="14.00" fill="#000000">ViewModule</text>
</g>
<!-- SharedModule&#45;&gt;ViewModule -->
<g id="edge41" class="edge">
<title>SharedModule&#45;&gt;ViewModule</title>
<path fill="none" stroke="#000000" d="M545.6056,-122.1679C545.6056,-124.4478 545.6056,-126 545.6056,-126 545.6056,-126 4246.022,-126 4246.022,-126 4246.022,-126 4246.022,-151.7181 4246.022,-151.7181"/>
<polygon fill="#000000" stroke="#000000" points="4242.5221,-151.718 4246.022,-161.7181 4249.5221,-151.7181 4242.5221,-151.718"/>
</g>
<!-- AppComponent -->
<g id="node5" class="node">
<title>AppComponent</title>
<polygon fill="#ffffb3" stroke="#000000" points="1176.9399,-198 1071.0601,-198 1071.0601,-162 1176.9399,-162 1176.9399,-198"/>
<text text-anchor="middle" x="1124" y="-175.8" font-family="Times,serif" font-size="14.00" fill="#000000">AppComponent</text>
</g>
<!-- AppModule -->
<g id="node6" class="node">
<title>AppModule</title>
<polygon fill="#8dd3c7" stroke="#000000" points="1045.6571,-263 1042.6571,-267 1021.6571,-267 1018.6571,-263 962.3429,-263 962.3429,-227 1045.6571,-227 1045.6571,-263"/>
<text text-anchor="middle" x="1004" y="-240.8" font-family="Times,serif" font-size="14.00" fill="#000000">AppModule</text>
</g>
<!-- AppComponent&#45;&gt;AppModule -->
<g id="edge4" class="edge">
<title>AppComponent&#45;&gt;AppModule</title>
<path fill="none" stroke="#000000" d="M1124,-198.1061C1124,-217.3391 1124,-245 1124,-245 1124,-245 1055.9702,-245 1055.9702,-245"/>
<polygon fill="#000000" stroke="#000000" points="1055.9702,-241.5001 1045.9702,-245 1055.9701,-248.5001 1055.9702,-241.5001"/>
</g>
<!-- AppComponent  -->
<g id="node9" class="node">
<title>AppComponent </title>
<polygon fill="#80b1d3" stroke="#000000" points="1058.439,-328 949.561,-328 949.561,-292 1058.439,-292 1058.439,-328"/>
<text text-anchor="middle" x="1004" y="-305.8" font-family="Times,serif" font-size="14.00" fill="#000000">AppComponent </text>
</g>
<!-- AppModule&#45;&gt;AppComponent  -->
<g id="edge7" class="edge">
<title>AppModule&#45;&gt;AppComponent </title>
<path fill="none" stroke="#000000" stroke-dasharray="1,5" d="M1004,-263.1061C1004,-263.1061 1004,-281.991 1004,-281.991"/>
<polygon fill="#000000" stroke="#000000" points="1000.5001,-281.9909 1004,-291.991 1007.5001,-281.991 1000.5001,-281.9909"/>
</g>
<!-- CoreModule&#45;&gt;AppModule -->
<g id="edge5" class="edge">
<title>CoreModule&#45;&gt;AppModule</title>
<path fill="none" stroke="#000000" d="M1004,-198.1061C1004,-198.1061 1004,-216.991 1004,-216.991"/>
<polygon fill="#000000" stroke="#000000" points="1000.5001,-216.9909 1004,-226.991 1007.5001,-216.991 1000.5001,-216.9909"/>
</g>
<!-- NavComponent  -->
<g id="node14" class="node">
<title>NavComponent </title>
<polygon fill="#fb8072" stroke="#000000" points="914.1537,-122 805.8463,-122 805.8463,-86 914.1537,-86 914.1537,-122"/>
<text text-anchor="middle" x="860" y="-99.8" font-family="Times,serif" font-size="14.00" fill="#000000">NavComponent </text>
</g>
<!-- CoreModule&#45;&gt;NavComponent  -->
<g id="edge13" class="edge">
<title>CoreModule&#45;&gt;NavComponent </title>
<path fill="none" stroke="#000000" stroke-dasharray="5,2" d="M993.1548,-161.8903C993.1548,-152.103 993.1548,-142 993.1548,-142 993.1548,-142 871.7407,-142 871.7407,-142 871.7407,-142 871.7407,-132.1097 871.7407,-132.1097"/>
<polygon fill="#000000" stroke="#000000" points="875.2408,-132.1096 871.7407,-122.1097 868.2408,-132.1097 875.2408,-132.1096"/>
</g>
<!-- GraphQLModule -->
<g id="node8" class="node">
<title>GraphQLModule</title>
<polygon fill="#8dd3c7" stroke="#000000" points="942.691,-198 939.691,-202 918.691,-202 915.691,-198 829.309,-198 829.309,-162 942.691,-162 942.691,-198"/>
<text text-anchor="middle" x="886" y="-175.8" font-family="Times,serif" font-size="14.00" fill="#000000">GraphQLModule</text>
</g>
<!-- GraphQLModule&#45;&gt;AppModule -->
<g id="edge6" class="edge">
<title>GraphQLModule&#45;&gt;AppModule</title>
<path fill="none" stroke="#000000" d="M886,-198.1061C886,-217.3391 886,-245 886,-245 886,-245 952.0654,-245 952.0654,-245"/>
<polygon fill="#000000" stroke="#000000" points="952.0654,-248.5001 962.0654,-245 952.0653,-241.5001 952.0654,-248.5001"/>
</g>
<!-- DragSizerComponent -->
<g id="node10" class="node">
<title>DragSizerComponent</title>
<polygon fill="#ffffb3" stroke="#000000" points="1460.0772,-122 1321.9228,-122 1321.9228,-86 1460.0772,-86 1460.0772,-122"/>
<text text-anchor="middle" x="1391" y="-99.8" font-family="Times,serif" font-size="14.00" fill="#000000">DragSizerComponent</text>
</g>
<!-- DragSizerComponent&#45;&gt;CoreModule -->
<g id="edge8" class="edge">
<title>DragSizerComponent&#45;&gt;CoreModule</title>
<path fill="none" stroke="#000000" d="M1391,-122.0091C1391,-138.0494 1391,-159 1391,-159 1391,-159 1036.5356,-159 1036.5356,-159 1036.5356,-159 1036.5356,-159.292 1036.5356,-159.292"/>
<polygon fill="#000000" stroke="#000000" points="1033.036,-151.9198 1036.5356,-161.92 1040.036,-151.9201 1033.036,-151.9198"/>
</g>
<!-- NavComponent -->
<g id="node11" class="node">
<title>NavComponent</title>
<polygon fill="#ffffb3" stroke="#000000" points="1304.1542,-122 1199.8458,-122 1199.8458,-86 1304.1542,-86 1304.1542,-122"/>
<text text-anchor="middle" x="1252" y="-99.8" font-family="Times,serif" font-size="14.00" fill="#000000">NavComponent</text>
</g>
<!-- NavComponent&#45;&gt;CoreModule -->
<g id="edge9" class="edge">
<title>NavComponent&#45;&gt;CoreModule</title>
<path fill="none" stroke="#000000" d="M1252,-122.1871C1252,-137.1824 1252,-156 1252,-156 1252,-156 1025.6904,-156 1025.6904,-156 1025.6904,-156 1025.6904,-156.581 1025.6904,-156.581"/>
<polygon fill="#000000" stroke="#000000" points="1022.1906,-151.8097 1025.6904,-161.8097 1029.1906,-151.8098 1022.1906,-151.8097"/>
</g>
<!-- AuthModule -->
<g id="node12" class="node">
<title>AuthModule</title>
<polygon fill="#8dd3c7" stroke="#000000" points="1175.5482,-122 1172.5482,-126 1151.5482,-126 1148.5482,-122 1088.4518,-122 1088.4518,-86 1175.5482,-86 1175.5482,-122"/>
<text text-anchor="middle" x="1132" y="-99.8" font-family="Times,serif" font-size="14.00" fill="#000000">AuthModule</text>
</g>
<!-- AuthModule&#45;&gt;CoreModule -->
<g id="edge10" class="edge">
<title>AuthModule&#45;&gt;CoreModule</title>
<path fill="none" stroke="#000000" d="M1132,-122.1467C1132,-135.7395 1132,-152 1132,-152 1132,-152 1014.8452,-152 1014.8452,-152 1014.8452,-152 1014.8452,-152.9793 1014.8452,-152.9793"/>
<polygon fill="#000000" stroke="#000000" points="1011.3453,-151.793 1014.8452,-161.793 1018.3453,-151.7931 1011.3453,-151.793"/>
</g>
<!-- CoreRoutingModule -->
<g id="node13" class="node">
<title>CoreRoutingModule</title>
<polygon fill="#8dd3c7" stroke="#000000" points="1069.8795,-122 1066.8795,-126 1045.8795,-126 1042.8795,-122 938.1205,-122 938.1205,-86 1069.8795,-86 1069.8795,-122"/>
<text text-anchor="middle" x="1004" y="-99.8" font-family="Times,serif" font-size="14.00" fill="#000000">CoreRoutingModule</text>
</g>
<!-- CoreRoutingModule&#45;&gt;CoreModule -->
<g id="edge11" class="edge">
<title>CoreRoutingModule&#45;&gt;CoreModule</title>
<path fill="none" stroke="#000000" d="M1004,-122.0109C1004,-122.0109 1004,-151.855 1004,-151.855"/>
<polygon fill="#000000" stroke="#000000" points="1000.5001,-151.8549 1004,-161.855 1007.5001,-151.855 1000.5001,-151.8549"/>
</g>
<!-- LoadingInterceptor -->
<g id="node15" class="node">
<title>LoadingInterceptor</title>
<ellipse fill="#fdb462" stroke="#000000" cx="696" cy="-104" rx="85.6551" ry="18"/>
<text text-anchor="middle" x="696" y="-99.8" font-family="Times,serif" font-size="14.00" fill="#000000">LoadingInterceptor</text>
</g>
<!-- LoadingInterceptor&#45;&gt;CoreModule -->
<g id="edge14" class="edge">
<title>LoadingInterceptor&#45;&gt;CoreModule</title>
<path fill="none" stroke="#000000" d="M696,-122.0555C696,-133.439 696,-146 696,-146 696,-146 982.3096,-146 982.3096,-146 982.3096,-146 982.3096,-151.8056 982.3096,-151.8056"/>
<polygon fill="#000000" stroke="#000000" points="978.8097,-151.8055 982.3096,-161.8056 985.8097,-151.8056 978.8097,-151.8055"/>
</g>
<!-- HomeComponent -->
<g id="node16" class="node">
<title>HomeComponent</title>
<polygon fill="#ffffb3" stroke="#000000" points="1777.5451,-122 1662.4549,-122 1662.4549,-86 1777.5451,-86 1777.5451,-122"/>
<text text-anchor="middle" x="1720" y="-99.8" font-family="Times,serif" font-size="14.00" fill="#000000">HomeComponent</text>
</g>
<!-- HomeComponent&#45;&gt;HomeModule -->
<g id="edge15" class="edge">
<title>HomeComponent&#45;&gt;HomeModule</title>
<path fill="none" stroke="#000000" d="M1720,-122.0109C1720,-144.4852 1720,-180 1720,-180 1720,-180 1625.9496,-180 1625.9496,-180"/>
<polygon fill="#000000" stroke="#000000" points="1625.9497,-176.5001 1615.9496,-180 1625.9496,-183.5001 1625.9497,-176.5001"/>
</g>
<!-- HomeRoutingModule -->
<g id="node18" class="node">
<title>HomeRoutingModule</title>
<polygon fill="#8dd3c7" stroke="#000000" points="1638.3795,-122 1635.3795,-126 1614.3795,-126 1611.3795,-122 1499.6205,-122 1499.6205,-86 1638.3795,-86 1638.3795,-122"/>
<text text-anchor="middle" x="1569" y="-99.8" font-family="Times,serif" font-size="14.00" fill="#000000">HomeRoutingModule</text>
</g>
<!-- HomeRoutingModule&#45;&gt;HomeModule -->
<g id="edge16" class="edge">
<title>HomeRoutingModule&#45;&gt;HomeModule</title>
<path fill="none" stroke="#000000" d="M1584.6269,-122.0109C1584.6269,-122.0109 1584.6269,-151.855 1584.6269,-151.855"/>
<polygon fill="#000000" stroke="#000000" points="1581.127,-151.8549 1584.6269,-161.855 1588.127,-151.855 1581.127,-151.8549"/>
</g>
<!-- LoginChoiceComponent -->
<g id="node19" class="node">
<title>LoginChoiceComponent</title>
<polygon fill="#ffffb3" stroke="#000000" points="2267.4326,-122 2112.5674,-122 2112.5674,-86 2267.4326,-86 2267.4326,-122"/>
<text text-anchor="middle" x="2190" y="-99.8" font-family="Times,serif" font-size="14.00" fill="#000000">LoginChoiceComponent</text>
</g>
<!-- LoginChoiceComponent&#45;&gt;LoginModule -->
<g id="edge18" class="edge">
<title>LoginChoiceComponent&#45;&gt;LoginModule</title>
<path fill="none" stroke="#000000" d="M2190,-122.0267C2190,-142.7672 2190,-174 2190,-174 2190,-174 2018.6894,-174 2018.6894,-174"/>
<polygon fill="#000000" stroke="#000000" points="2018.6894,-170.5001 2008.6894,-174 2018.6893,-177.5001 2018.6894,-170.5001"/>
</g>
<!-- LoginComponent -->
<g id="node20" class="node">
<title>LoginComponent</title>
<polygon fill="#ffffb3" stroke="#000000" points="2094.2758,-122 1979.7242,-122 1979.7242,-86 2094.2758,-86 2094.2758,-122"/>
<text text-anchor="middle" x="2037" y="-99.8" font-family="Times,serif" font-size="14.00" fill="#000000">LoginComponent</text>
</g>
<!-- LoginComponent&#45;&gt;LoginModule -->
<g id="edge19" class="edge">
<title>LoginComponent&#45;&gt;LoginModule</title>
<path fill="none" stroke="#000000" d="M1994.0544,-122.0109C1994.0544,-122.0109 1994.0544,-151.855 1994.0544,-151.855"/>
<polygon fill="#000000" stroke="#000000" points="1990.5544,-151.8549 1994.0544,-161.855 1997.5544,-151.855 1990.5544,-151.8549"/>
</g>
<!-- LoginRoutingModule -->
<g id="node22" class="node">
<title>LoginRoutingModule</title>
<polygon fill="#8dd3c7" stroke="#000000" points="1956.1108,-122 1953.1108,-126 1932.1108,-126 1929.1108,-122 1817.8892,-122 1817.8892,-86 1956.1108,-86 1956.1108,-122"/>
<text text-anchor="middle" x="1887" y="-99.8" font-family="Times,serif" font-size="14.00" fill="#000000">LoginRoutingModule</text>
</g>
<!-- LoginRoutingModule&#45;&gt;LoginModule -->
<g id="edge20" class="edge">
<title>LoginRoutingModule&#45;&gt;LoginModule</title>
<path fill="none" stroke="#000000" d="M1942.5381,-122.0109C1942.5381,-122.0109 1942.5381,-151.855 1942.5381,-151.855"/>
<polygon fill="#000000" stroke="#000000" points="1939.0382,-151.8549 1942.5381,-161.855 1946.0382,-151.855 1939.0382,-151.8549"/>
</g>
<!-- BranchSelectorComponent -->
<g id="node23" class="node">
<title>BranchSelectorComponent</title>
<polygon fill="#ffffb3" stroke="#000000" points="2636.6274,-122 2469.3726,-122 2469.3726,-86 2636.6274,-86 2636.6274,-122"/>
<text text-anchor="middle" x="2553" y="-99.8" font-family="Times,serif" font-size="14.00" fill="#000000">BranchSelectorComponent</text>
</g>
<!-- BranchSelectorComponent&#45;&gt;SelectModule -->
<g id="edge22" class="edge">
<title>BranchSelectorComponent&#45;&gt;SelectModule</title>
<path fill="none" stroke="#000000" d="M2568.6262,-122.0109C2568.6262,-122.0109 2568.6262,-151.855 2568.6262,-151.855"/>
<polygon fill="#000000" stroke="#000000" points="2565.1263,-151.8549 2568.6262,-161.855 2572.1263,-151.855 2565.1263,-151.8549"/>
</g>
<!-- SelectComponent -->
<g id="node24" class="node">
<title>SelectComponent</title>
<polygon fill="#ffffb3" stroke="#000000" points="2934.5409,-122 2819.4591,-122 2819.4591,-86 2934.5409,-86 2934.5409,-122"/>
<text text-anchor="middle" x="2877" y="-99.8" font-family="Times,serif" font-size="14.00" fill="#000000">SelectComponent</text>
</g>
<!-- SelectComponent&#45;&gt;SelectModule -->
<g id="edge23" class="edge">
<title>SelectComponent&#45;&gt;SelectModule</title>
<path fill="none" stroke="#000000" d="M2877,-122.0348C2877,-141.5762 2877,-170 2877,-170 2877,-170 2609.7664,-170 2609.7664,-170"/>
<polygon fill="#000000" stroke="#000000" points="2609.7664,-166.5001 2599.7664,-170 2609.7663,-173.5001 2609.7664,-166.5001"/>
</g>
<!-- SelectFormComponent -->
<g id="node25" class="node">
<title>SelectFormComponent</title>
<polygon fill="#ffffb3" stroke="#000000" points="2800.8739,-122 2655.1261,-122 2655.1261,-86 2800.8739,-86 2800.8739,-122"/>
<text text-anchor="middle" x="2728" y="-99.8" font-family="Times,serif" font-size="14.00" fill="#000000">SelectFormComponent</text>
</g>
<!-- SelectFormComponent&#45;&gt;SelectModule -->
<g id="edge24" class="edge">
<title>SelectFormComponent&#45;&gt;SelectModule</title>
<path fill="none" stroke="#000000" d="M2728,-122.2667C2728,-140.5552 2728,-166 2728,-166 2728,-166 2609.8968,-166 2609.8968,-166"/>
<polygon fill="#000000" stroke="#000000" points="2609.8968,-162.5001 2599.8968,-166 2609.8968,-169.5001 2609.8968,-162.5001"/>
</g>
<!-- SelectRoutingModule -->
<g id="node27" class="node">
<title>SelectRoutingModule</title>
<polygon fill="#8dd3c7" stroke="#000000" points="2445.3753,-122 2442.3753,-126 2421.3753,-126 2418.3753,-122 2306.6247,-122 2306.6247,-86 2445.3753,-86 2445.3753,-122"/>
<text text-anchor="middle" x="2376" y="-99.8" font-family="Times,serif" font-size="14.00" fill="#000000">SelectRoutingModule</text>
</g>
<!-- SelectRoutingModule&#45;&gt;SelectModule -->
<g id="edge25" class="edge">
<title>SelectRoutingModule&#45;&gt;SelectModule</title>
<path fill="none" stroke="#000000" d="M2376,-122.1985C2376,-146.3563 2376,-186 2376,-186 2376,-186 2496.0319,-186 2496.0319,-186"/>
<polygon fill="#000000" stroke="#000000" points="2496.032,-189.5001 2506.0319,-186 2496.0319,-182.5001 2496.032,-189.5001"/>
</g>
<!-- CodeRendererComponent -->
<g id="node29" class="node">
<title>CodeRendererComponent</title>
<polygon fill="#ffffb3" stroke="#000000" points="5105.1853,-122 4942.8147,-122 4942.8147,-86 5105.1853,-86 5105.1853,-122"/>
<text text-anchor="middle" x="5024" y="-99.8" font-family="Times,serif" font-size="14.00" fill="#000000">CodeRendererComponent</text>
</g>
<!-- CodeRendererComponent&#45;&gt;ViewModule -->
<g id="edge28" class="edge">
<title>CodeRendererComponent&#45;&gt;ViewModule</title>
<path fill="none" stroke="#000000" d="M5024,-122.0908C5024,-145.1328 5024,-182 5024,-182 5024,-182 4315.8806,-182 4315.8806,-182"/>
<polygon fill="#000000" stroke="#000000" points="4315.8806,-178.5001 4305.8806,-182 4315.8805,-185.5001 4315.8806,-178.5001"/>
</g>
<!-- CsvComponent -->
<g id="node30" class="node">
<title>CsvComponent</title>
<polygon fill="#ffffb3" stroke="#000000" points="4924.6137,-122 4821.3863,-122 4821.3863,-86 4924.6137,-86 4924.6137,-122"/>
<text text-anchor="middle" x="4873" y="-99.8" font-family="Times,serif" font-size="14.00" fill="#000000">CsvComponent</text>
</g>
<!-- CsvComponent&#45;&gt;ViewModule -->
<g id="edge29" class="edge">
<title>CsvComponent&#45;&gt;ViewModule</title>
<path fill="none" stroke="#000000" d="M4873,-122.2921C4873,-144.2057 4873,-178 4873,-178 4873,-178 4316.0018,-178 4316.0018,-178"/>
<polygon fill="#000000" stroke="#000000" points="4316.0019,-174.5001 4306.0018,-178 4316.0018,-181.5001 4316.0019,-174.5001"/>
</g>
<!-- FileFooterComponent -->
<g id="node31" class="node">
<title>FileFooterComponent</title>
<polygon fill="#ffffb3" stroke="#000000" points="4803.6596,-122 4664.3404,-122 4664.3404,-86 4803.6596,-86 4803.6596,-122"/>
<text text-anchor="middle" x="4734" y="-99.8" font-family="Times,serif" font-size="14.00" fill="#000000">FileFooterComponent</text>
</g>
<!-- FileFooterComponent&#45;&gt;ViewModule -->
<g id="edge30" class="edge">
<title>FileFooterComponent&#45;&gt;ViewModule</title>
<path fill="none" stroke="#000000" d="M4734,-122.0267C4734,-142.7672 4734,-174 4734,-174 4734,-174 4315.9251,-174 4315.9251,-174"/>
<polygon fill="#000000" stroke="#000000" points="4315.9252,-170.5001 4305.9251,-174 4315.9251,-177.5001 4315.9252,-170.5001"/>
</g>
<!-- FileRendererComponent -->
<g id="node32" class="node">
<title>FileRendererComponent</title>
<polygon fill="#ffffb3" stroke="#000000" points="4646.413,-122 4491.587,-122 4491.587,-86 4646.413,-86 4646.413,-122"/>
<text text-anchor="middle" x="4569" y="-99.8" font-family="Times,serif" font-size="14.00" fill="#000000">FileRendererComponent</text>
</g>
<!-- FileRendererComponent&#45;&gt;ViewModule -->
<g id="edge31" class="edge">
<title>FileRendererComponent&#45;&gt;ViewModule</title>
<path fill="none" stroke="#000000" d="M4569,-122.0348C4569,-141.5762 4569,-170 4569,-170 4569,-170 4316.1157,-170 4316.1157,-170"/>
<polygon fill="#000000" stroke="#000000" points="4316.1157,-166.5001 4306.1157,-170 4316.1157,-173.5001 4316.1157,-166.5001"/>
</g>
<!-- FileTabsComponent -->
<g id="node33" class="node">
<title>FileTabsComponent</title>
<polygon fill="#ffffb3" stroke="#000000" points="4474.323,-122 4343.677,-122 4343.677,-86 4474.323,-86 4474.323,-122"/>
<text text-anchor="middle" x="4409" y="-99.8" font-family="Times,serif" font-size="14.00" fill="#000000">FileTabsComponent</text>
</g>
<!-- FileTabsComponent&#45;&gt;ViewModule -->
<g id="edge32" class="edge">
<title>FileTabsComponent&#45;&gt;ViewModule</title>
<path fill="none" stroke="#000000" d="M4409,-122.2667C4409,-140.5552 4409,-166 4409,-166 4409,-166 4316.2091,-166 4316.2091,-166"/>
<polygon fill="#000000" stroke="#000000" points="4316.2091,-162.5001 4306.2091,-166 4316.209,-169.5001 4316.2091,-162.5001"/>
</g>
<!-- FileTreeComponent -->
<g id="node34" class="node">
<title>FileTreeComponent</title>
<polygon fill="#ffffb3" stroke="#000000" points="4325.2534,-122 4196.7466,-122 4196.7466,-86 4325.2534,-86 4325.2534,-122"/>
<text text-anchor="middle" x="4261" y="-99.8" font-family="Times,serif" font-size="14.00" fill="#000000">FileTreeComponent</text>
</g>
<!-- FileTreeComponent&#45;&gt;ViewModule -->
<g id="edge33" class="edge">
<title>FileTreeComponent&#45;&gt;ViewModule</title>
<path fill="none" stroke="#000000" d="M4275.978,-122.0109C4275.978,-122.0109 4275.978,-151.855 4275.978,-151.855"/>
<polygon fill="#000000" stroke="#000000" points="4272.4781,-151.8549 4275.978,-161.855 4279.4781,-151.855 4272.4781,-151.8549"/>
</g>
<!-- FileViewerComponent -->
<g id="node35" class="node">
<title>FileViewerComponent</title>
<polygon fill="#ffffb3" stroke="#000000" points="4178.3047,-122 4033.6953,-122 4033.6953,-86 4178.3047,-86 4178.3047,-122"/>
<text text-anchor="middle" x="4106" y="-99.8" font-family="Times,serif" font-size="14.00" fill="#000000">FileViewerComponent</text>
</g>
<!-- FileViewerComponent&#45;&gt;ViewModule -->
<g id="edge34" class="edge">
<title>FileViewerComponent&#45;&gt;ViewModule</title>
<path fill="none" stroke="#000000" d="M4106,-122.1289C4106,-142.5724 4106,-173 4106,-173 4106,-173 4205.7509,-173 4205.7509,-173"/>
<polygon fill="#000000" stroke="#000000" points="4205.7509,-176.5001 4215.7509,-173 4205.7509,-169.5001 4205.7509,-176.5001"/>
</g>
<!-- ImageRendererComponent -->
<g id="node36" class="node">
<title>ImageRendererComponent</title>
<polygon fill="#ffffb3" stroke="#000000" points="4015.6148,-122 3848.3852,-122 3848.3852,-86 4015.6148,-86 4015.6148,-122"/>
<text text-anchor="middle" x="3932" y="-99.8" font-family="Times,serif" font-size="14.00" fill="#000000">ImageRendererComponent</text>
</g>
<!-- ImageRendererComponent&#45;&gt;ViewModule -->
<g id="edge35" class="edge">
<title>ImageRendererComponent&#45;&gt;ViewModule</title>
<path fill="none" stroke="#000000" d="M3932,-122.0449C3932,-143.6623 3932,-177 3932,-177 3932,-177 4205.9438,-177 4205.9438,-177"/>
<polygon fill="#000000" stroke="#000000" points="4205.9438,-180.5001 4215.9438,-177 4205.9438,-173.5001 4205.9438,-180.5001"/>
</g>
<!-- LanguageSelectionComponent -->
<g id="node37" class="node">
<title>LanguageSelectionComponent</title>
<polygon fill="#ffffb3" stroke="#000000" points="3830.1274,-122 3641.8726,-122 3641.8726,-86 3830.1274,-86 3830.1274,-122"/>
<text text-anchor="middle" x="3736" y="-99.8" font-family="Times,serif" font-size="14.00" fill="#000000">LanguageSelectionComponent</text>
</g>
<!-- LanguageSelectionComponent&#45;&gt;ViewModule -->
<g id="edge36" class="edge">
<title>LanguageSelectionComponent&#45;&gt;ViewModule</title>
<path fill="none" stroke="#000000" d="M3736,-122.0109C3736,-144.4852 3736,-180 3736,-180 3736,-180 4205.7844,-180 4205.7844,-180"/>
<polygon fill="#000000" stroke="#000000" points="4205.7844,-183.5001 4215.7844,-180 4205.7844,-176.5001 4205.7844,-183.5001"/>
</g>
<!-- PrismDirective -->
<g id="node38" class="node">
<title>PrismDirective</title>
<polygon fill="#ffffb3" stroke="#000000" points="3623.2521,-122 3522.7479,-122 3522.7479,-86 3623.2521,-86 3623.2521,-122"/>
<text text-anchor="middle" x="3573" y="-99.8" font-family="Times,serif" font-size="14.00" fill="#000000">PrismDirective</text>
</g>
<!-- PrismDirective&#45;&gt;ViewModule -->
<g id="edge37" class="edge">
<title>PrismDirective&#45;&gt;ViewModule</title>
<path fill="none" stroke="#000000" d="M3573,-122.1532C3573,-145.7566 3573,-184 3573,-184 3573,-184 4206.1238,-184 4206.1238,-184"/>
<polygon fill="#000000" stroke="#000000" points="4206.1238,-187.5001 4216.1238,-184 4206.1238,-180.5001 4206.1238,-187.5001"/>
</g>
<!-- ScrollIntoViewDirective -->
<g id="node39" class="node">
<title>ScrollIntoViewDirective</title>
<polygon fill="#ffffb3" stroke="#000000" points="5569.3919,-122 5414.6081,-122 5414.6081,-86 5569.3919,-86 5569.3919,-122"/>
<text text-anchor="middle" x="5492" y="-99.8" font-family="Times,serif" font-size="14.00" fill="#000000">ScrollIntoViewDirective</text>
</g>
<!-- ScrollIntoViewDirective&#45;&gt;ViewModule -->
<g id="edge38" class="edge">
<title>ScrollIntoViewDirective&#45;&gt;ViewModule</title>
<path fill="none" stroke="#000000" d="M5492,-122.2128C5492,-148.5111 5492,-194 5492,-194 5492,-194 4315.9049,-194 4315.9049,-194"/>
<polygon fill="#000000" stroke="#000000" points="4315.9049,-190.5001 4305.9049,-194 4315.9048,-197.5001 4315.9049,-190.5001"/>
</g>
<!-- ShowdownComponent -->
<g id="node40" class="node">
<title>ShowdownComponent</title>
<polygon fill="#ffffb3" stroke="#000000" points="5397.3286,-122 5252.6714,-122 5252.6714,-86 5397.3286,-86 5397.3286,-122"/>
<text text-anchor="middle" x="5325" y="-99.8" font-family="Times,serif" font-size="14.00" fill="#000000">ShowdownComponent</text>
</g>
<!-- ShowdownComponent&#45;&gt;ViewModule -->
<g id="edge39" class="edge">
<title>ShowdownComponent&#45;&gt;ViewModule</title>
<path fill="none" stroke="#000000" d="M5325,-122.2384C5325,-147.4829 5325,-190 5325,-190 5325,-190 4316.0392,-190 4316.0392,-190"/>
<polygon fill="#000000" stroke="#000000" points="4316.0392,-186.5001 4306.0392,-190 4316.0391,-193.5001 4316.0392,-186.5001"/>
</g>
<!-- ViewComponent -->
<g id="node41" class="node">
<title>ViewComponent</title>
<polygon fill="#ffffb3" stroke="#000000" points="5234.6513,-122 5123.3487,-122 5123.3487,-86 5234.6513,-86 5234.6513,-122"/>
<text text-anchor="middle" x="5179" y="-99.8" font-family="Times,serif" font-size="14.00" fill="#000000">ViewComponent</text>
</g>
<!-- ViewComponent&#45;&gt;ViewModule -->
<g id="edge40" class="edge">
<title>ViewComponent&#45;&gt;ViewModule</title>
<path fill="none" stroke="#000000" d="M5179,-122.1985C5179,-146.3563 5179,-186 5179,-186 5179,-186 4315.8985,-186 4315.8985,-186"/>
<polygon fill="#000000" stroke="#000000" points="4315.8985,-182.5001 4305.8985,-186 4315.8984,-189.5001 4315.8985,-182.5001"/>
</g>
<!-- ViewRoutingModule -->
<g id="node43" class="node">
<title>ViewRoutingModule</title>
<polygon fill="#8dd3c7" stroke="#000000" points="3499.486,-122 3496.486,-126 3475.486,-126 3472.486,-122 3364.514,-122 3364.514,-86 3499.486,-86 3499.486,-122"/>
<text text-anchor="middle" x="3432" y="-99.8" font-family="Times,serif" font-size="14.00" fill="#000000">ViewRoutingModule</text>
</g>
<!-- ViewRoutingModule&#45;&gt;ViewModule -->
<g id="edge42" class="edge">
<title>ViewRoutingModule&#45;&gt;ViewModule</title>
<path fill="none" stroke="#000000" d="M3432,-122.2267C3432,-146.9318 3432,-188 3432,-188 3432,-188 4205.8406,-188 4205.8406,-188"/>
<polygon fill="#000000" stroke="#000000" points="4205.8407,-191.5001 4215.8406,-188 4205.8406,-184.5001 4205.8407,-191.5001"/>
</g>
<!-- FileLoaderService -->
<g id="node44" class="node">
<title>FileLoaderService</title>
<ellipse fill="#fdb462" stroke="#000000" cx="3259" cy="-104" rx="82.2179" ry="18"/>
<text text-anchor="middle" x="3259" y="-99.8" font-family="Times,serif" font-size="14.00" fill="#000000">FileLoaderService</text>
</g>
<!-- FileLoaderService&#45;&gt;ViewModule -->
<g id="edge43" class="edge">
<title>FileLoaderService&#45;&gt;ViewModule</title>
<path fill="none" stroke="#000000" d="M3259,-122.0265C3259,-147.5093 3259,-191 3259,-191 3259,-191 4205.9996,-191 4205.9996,-191"/>
<polygon fill="#000000" stroke="#000000" points="4205.9996,-194.5001 4215.9996,-191 4205.9995,-187.5001 4205.9996,-194.5001"/>
</g>
<!-- RenderCacheService -->
<g id="node45" class="node">
<title>RenderCacheService</title>
<ellipse fill="#fdb462" stroke="#000000" cx="3067" cy="-104" rx="92.0123" ry="18"/>
<text text-anchor="middle" x="3067" y="-99.8" font-family="Times,serif" font-size="14.00" fill="#000000">RenderCacheService</text>
</g>
<!-- RenderCacheService&#45;&gt;ViewModule -->
<g id="edge44" class="edge">
<title>RenderCacheService&#45;&gt;ViewModule</title>
<path fill="none" stroke="#000000" d="M3067,-122.4152C3067,-149.0057 3067,-195 3067,-195 3067,-195 4206.013,-195 4206.013,-195"/>
<polygon fill="#000000" stroke="#000000" points="4206.0131,-198.5001 4216.013,-195 4206.013,-191.5001 4206.0131,-198.5001"/>
</g>
</g>
</svg>
