<?xml version="1.0" encoding="UTF-8" standalone="no"?>
<!DOCTYPE svg PUBLIC "-//W3C//DTD SVG 1.1//EN"
 "http://www.w3.org/Graphics/SVG/1.1/DTD/svg11.dtd">
<!-- Generated by graphviz version 2.40.1 (20161225.0304)
 -->
<!-- Title: dependencies Pages: 1 -->
<svg width="801pt" height="211pt"
 viewBox="0.00 0.00 801.00 211.00" xmlns="http://www.w3.org/2000/svg" xmlns:xlink="http://www.w3.org/1999/xlink">
<g id="graph0" class="graph" transform="scale(1 1) rotate(0) translate(4 207)">
<title>dependencies</title>
<polygon fill="#ffffff" stroke="transparent" points="-4,4 -4,-207 797,-207 797,4 -4,4"/>
<text text-anchor="start" x="375.5091" y="-42.4" font-family="sans-serif" font-weight="bold" font-size="14.00" fill="#000000">Legend</text>
<polygon fill="#ffffb3" stroke="transparent" points="162.5,-10 162.5,-30 182.5,-30 182.5,-10 162.5,-10"/>
<text text-anchor="start" x="186.129" y="-15.4" font-family="sans-serif" font-size="14.00" fill="#000000"> &#160;Declarations</text>
<polygon fill="#8dd3c7" stroke="transparent" points="275.5,-10 275.5,-30 295.5,-30 295.5,-10 275.5,-10"/>
<text text-anchor="start" x="299.2251" y="-15.4" font-family="sans-serif" font-size="14.00" fill="#000000"> &#160;Module</text>
<polygon fill="#80b1d3" stroke="transparent" points="361.5,-10 361.5,-30 381.5,-30 381.5,-10 361.5,-10"/>
<text text-anchor="start" x="385.2812" y="-15.4" font-family="sans-serif" font-size="14.00" fill="#000000"> &#160;Bootstrap</text>
<polygon fill="#fdb462" stroke="transparent" points="458.5,-10 458.5,-30 478.5,-30 478.5,-10 458.5,-10"/>
<text text-anchor="start" x="482.1732" y="-15.4" font-family="sans-serif" font-size="14.00" fill="#000000"> &#160;Providers</text>
<polygon fill="#fb8072" stroke="transparent" points="554.5,-10 554.5,-30 574.5,-30 574.5,-10 554.5,-10"/>
<text text-anchor="start" x="578.2258" y="-15.4" font-family="sans-serif" font-size="14.00" fill="#000000"> &#160;Exports</text>
<g id="clust1" class="cluster">
<title>cluster_SelectModule</title>
<polygon fill="none" stroke="#000000" stroke-dasharray="1,5" points="8,-70 8,-195 785,-195 785,-70 8,-70"/>
</g>
<g id="clust2" class="cluster">
<title>cluster_SelectModule_declarations</title>
<polygon fill="none" stroke="#000000" points="295,-78 295,-130 777,-130 777,-78 295,-78"/>
</g>
<g id="clust6" class="cluster">
<title>cluster_SelectModule_imports</title>
<polygon fill="none" stroke="#000000" points="16,-78 16,-130 287,-130 287,-78 16,-78"/>
</g>
<!-- BranchSelectorComponent -->
<g id="node1" class="node">
<title>BranchSelectorComponent</title>
<polygon fill="#ffffb3" stroke="#000000" points="768.6274,-122 601.3726,-122 601.3726,-86 768.6274,-86 768.6274,-122"/>
<text text-anchor="middle" x="685" y="-99.8" font-family="Times,serif" font-size="14.00" fill="#000000">BranchSelectorComponent</text>
</g>
<!-- SelectModule -->
<g id="node4" class="node">
<title>SelectModule</title>
<polygon fill="#8dd3c7" stroke="#000000" points="422.7577,-187 419.7577,-191 398.7577,-191 395.7577,-187 329.2423,-187 329.2423,-151 422.7577,-151 422.7577,-187"/>
<text text-anchor="middle" x="376" y="-164.8" font-family="Times,serif" font-size="14.00" fill="#000000">SelectModule</text>
</g>
<!-- BranchSelectorComponent&#45;&gt;SelectModule -->
<g id="edge1" class="edge">
<title>BranchSelectorComponent&#45;&gt;SelectModule</title>
<path fill="none" stroke="#000000" d="M685,-122.2843C685,-143.3211 685,-175 685,-175 685,-175 432.9304,-175 432.9304,-175"/>
<polygon fill="#000000" stroke="#000000" points="432.9305,-171.5001 422.9304,-175 432.9304,-178.5001 432.9305,-171.5001"/>
</g>
<!-- SelectComponent -->
<g id="node2" class="node">
<title>SelectComponent</title>
<polygon fill="#ffffb3" stroke="#000000" points="582.5409,-122 467.4591,-122 467.4591,-86 582.5409,-86 582.5409,-122"/>
<text text-anchor="middle" x="525" y="-99.8" font-family="Times,serif" font-size="14.00" fill="#000000">SelectComponent</text>
</g>
<!-- SelectComponent&#45;&gt;SelectModule -->
<g id="edge2" class="edge">
<title>SelectComponent&#45;&gt;SelectModule</title>
<path fill="none" stroke="#000000" d="M525,-122.0225C525,-139.3734 525,-163 525,-163 525,-163 433.1445,-163 433.1445,-163"/>
<polygon fill="#000000" stroke="#000000" points="433.1446,-159.5001 423.1445,-163 433.1445,-166.5001 433.1446,-159.5001"/>
</g>
<!-- SelectFormComponent -->
<g id="node3" class="node">
<title>SelectFormComponent</title>
<polygon fill="#ffffb3" stroke="#000000" points="448.8739,-122 303.1261,-122 303.1261,-86 448.8739,-86 448.8739,-122"/>
<text text-anchor="middle" x="376" y="-99.8" font-family="Times,serif" font-size="14.00" fill="#000000">SelectFormComponent</text>
</g>
<!-- SelectFormComponent&#45;&gt;SelectModule -->
<g id="edge3" class="edge">
<title>SelectFormComponent&#45;&gt;SelectModule</title>
<path fill="none" stroke="#000000" d="M376,-122.1061C376,-122.1061 376,-140.991 376,-140.991"/>
<polygon fill="#000000" stroke="#000000" points="372.5001,-140.9909 376,-150.991 379.5001,-140.991 372.5001,-140.9909"/>
</g>
<!-- SelectRoutingModule -->
<g id="node5" class="node">
<title>SelectRoutingModule</title>
<polygon fill="#8dd3c7" stroke="#000000" points="279.3753,-122 276.3753,-126 255.3753,-126 252.3753,-122 140.6247,-122 140.6247,-86 279.3753,-86 279.3753,-122"/>
<text text-anchor="middle" x="210" y="-99.8" font-family="Times,serif" font-size="14.00" fill="#000000">SelectRoutingModule</text>
</g>
<!-- SelectRoutingModule&#45;&gt;SelectModule -->
<g id="edge4" class="edge">
<title>SelectRoutingModule&#45;&gt;SelectModule</title>
<path fill="none" stroke="#000000" d="M210,-122.0225C210,-139.3734 210,-163 210,-163 210,-163 318.8751,-163 318.8751,-163"/>
<polygon fill="#000000" stroke="#000000" points="318.8751,-166.5001 328.8751,-163 318.8751,-159.5001 318.8751,-166.5001"/>
</g>
<!-- SharedModule -->
<g id="node6" class="node">
<title>SharedModule</title>
<polygon fill="#8dd3c7" stroke="#000000" points="122.4231,-122 119.4231,-126 98.4231,-126 95.4231,-122 23.5769,-122 23.5769,-86 122.4231,-86 122.4231,-122"/>
<text text-anchor="middle" x="73" y="-99.8" font-family="Times,serif" font-size="14.00" fill="#000000">SharedModule</text>
</g>
<!-- SharedModule&#45;&gt;SelectModule -->
<g id="edge5" class="edge">
<title>SharedModule&#45;&gt;SelectModule</title>
<path fill="none" stroke="#000000" d="M73,-122.2843C73,-143.3211 73,-175 73,-175 73,-175 318.9887,-175 318.9887,-175"/>
<polygon fill="#000000" stroke="#000000" points="318.9887,-178.5001 328.9887,-175 318.9887,-171.5001 318.9887,-178.5001"/>
</g>
</g>
</svg>
