<?xml version="1.0" encoding="UTF-8" standalone="no"?>
<!DOCTYPE svg PUBLIC "-//W3C//DTD SVG 1.1//EN"
 "http://www.w3.org/Graphics/SVG/1.1/DTD/svg11.dtd">
<!-- Generated by graphviz version 2.40.1 (20161225.0304)
 -->
<!-- Title: dependencies Pages: 1 -->
<svg width="926pt" height="211pt"
 viewBox="0.00 0.00 926.00 211.00" xmlns="http://www.w3.org/2000/svg" xmlns:xlink="http://www.w3.org/1999/xlink">
<g id="graph0" class="graph" transform="scale(1 1) rotate(0) translate(4 207)">
<title>dependencies</title>
<polygon fill="#ffffff" stroke="transparent" points="-4,4 -4,-207 922,-207 922,4 -4,4"/>
<text text-anchor="start" x="438.0091" y="-42.4" font-family="sans-serif" font-weight="bold" font-size="14.00" fill="#000000">Legend</text>
<polygon fill="#ffffb3" stroke="transparent" points="225,-10 225,-30 245,-30 245,-10 225,-10"/>
<text text-anchor="start" x="248.629" y="-15.4" font-family="sans-serif" font-size="14.00" fill="#000000"> &#160;Declarations</text>
<polygon fill="#8dd3c7" stroke="transparent" points="338,-10 338,-30 358,-30 358,-10 338,-10"/>
<text text-anchor="start" x="361.7251" y="-15.4" font-family="sans-serif" font-size="14.00" fill="#000000"> &#160;Module</text>
<polygon fill="#80b1d3" stroke="transparent" points="424,-10 424,-30 444,-30 444,-10 424,-10"/>
<text text-anchor="start" x="447.7812" y="-15.4" font-family="sans-serif" font-size="14.00" fill="#000000"> &#160;Bootstrap</text>
<polygon fill="#fdb462" stroke="transparent" points="521,-10 521,-30 541,-30 541,-10 521,-10"/>
<text text-anchor="start" x="544.6732" y="-15.4" font-family="sans-serif" font-size="14.00" fill="#000000"> &#160;Providers</text>
<polygon fill="#fb8072" stroke="transparent" points="617,-10 617,-30 637,-30 637,-10 617,-10"/>
<text text-anchor="start" x="640.7258" y="-15.4" font-family="sans-serif" font-size="14.00" fill="#000000"> &#160;Exports</text>
<g id="clust1" class="cluster">
<title>cluster_SelectModule</title>
<polygon fill="none" stroke="#000000" stroke-dasharray="1,5" points="8,-70 8,-195 910,-195 910,-70 8,-70"/>
</g>
<g id="clust2" class="cluster">
<title>cluster_SelectModule_declarations</title>
<polygon fill="none" stroke="#000000" points="420,-78 420,-130 902,-130 902,-78 420,-78"/>
</g>
<g id="clust6" class="cluster">
<title>cluster_SelectModule_imports</title>
<polygon fill="none" stroke="#000000" points="16,-78 16,-130 412,-130 412,-78 16,-78"/>
</g>
<!-- BranchSelectorComponent -->
<g id="node1" class="node">
<title>BranchSelectorComponent</title>
<polygon fill="#ffffb3" stroke="#000000" points="893.6274,-122 726.3726,-122 726.3726,-86 893.6274,-86 893.6274,-122"/>
<text text-anchor="middle" x="810" y="-99.8" font-family="Times,serif" font-size="14.00" fill="#000000">BranchSelectorComponent</text>
</g>
<!-- SelectModule -->
<g id="node4" class="node">
<title>SelectModule</title>
<polygon fill="#8dd3c7" stroke="#000000" points="472.7577,-187 469.7577,-191 448.7577,-191 445.7577,-187 379.2423,-187 379.2423,-151 472.7577,-151 472.7577,-187"/>
<text text-anchor="middle" x="426" y="-164.8" font-family="Times,serif" font-size="14.00" fill="#000000">SelectModule</text>
</g>
<!-- BranchSelectorComponent&#45;&gt;SelectModule -->
<g id="edge1" class="edge">
<title>BranchSelectorComponent&#45;&gt;SelectModule</title>
<path fill="none" stroke="#000000" d="M810,-122.2843C810,-143.3211 810,-175 810,-175 810,-175 483.0859,-175 483.0859,-175"/>
<polygon fill="#000000" stroke="#000000" points="483.086,-171.5001 473.0859,-175 483.0859,-178.5001 483.086,-171.5001"/>
</g>
<!-- SelectComponent -->
<g id="node2" class="node">
<title>SelectComponent</title>
<polygon fill="#ffffb3" stroke="#000000" points="707.5409,-122 592.4591,-122 592.4591,-86 707.5409,-86 707.5409,-122"/>
<text text-anchor="middle" x="650" y="-99.8" font-family="Times,serif" font-size="14.00" fill="#000000">SelectComponent</text>
</g>
<!-- SelectComponent&#45;&gt;SelectModule -->
<g id="edge2" class="edge">
<title>SelectComponent&#45;&gt;SelectModule</title>
<path fill="none" stroke="#000000" d="M650,-122.0225C650,-139.3734 650,-163 650,-163 650,-163 482.9577,-163 482.9577,-163"/>
<polygon fill="#000000" stroke="#000000" points="482.9578,-159.5001 472.9577,-163 482.9577,-166.5001 482.9578,-159.5001"/>
</g>
<!-- SelectFormComponent -->
<g id="node3" class="node">
<title>SelectFormComponent</title>
<polygon fill="#ffffb3" stroke="#000000" points="573.8739,-122 428.1261,-122 428.1261,-86 573.8739,-86 573.8739,-122"/>
<text text-anchor="middle" x="501" y="-99.8" font-family="Times,serif" font-size="14.00" fill="#000000">SelectFormComponent</text>
</g>
<!-- SelectFormComponent&#45;&gt;SelectModule -->
<g id="edge3" class="edge">
<title>SelectFormComponent&#45;&gt;SelectModule</title>
<path fill="none" stroke="#000000" d="M450.4709,-122.1061C450.4709,-122.1061 450.4709,-140.991 450.4709,-140.991"/>
<polygon fill="#000000" stroke="#000000" points="446.971,-140.9909 450.4709,-150.991 453.971,-140.991 446.971,-140.9909"/>
</g>
<!-- MaterialModule -->
<g id="node5" class="node">
<title>MaterialModule</title>
<polygon fill="#8dd3c7" stroke="#000000" points="404.4706,-122 401.4706,-126 380.4706,-126 377.4706,-122 297.5294,-122 297.5294,-86 404.4706,-86 404.4706,-122"/>
<text text-anchor="middle" x="351" y="-99.8" font-family="Times,serif" font-size="14.00" fill="#000000">MaterialModule</text>
</g>
<!-- MaterialModule&#45;&gt;SelectModule -->
<g id="edge4" class="edge">
<title>MaterialModule&#45;&gt;SelectModule</title>
<path fill="none" stroke="#000000" d="M391.8033,-122.1061C391.8033,-122.1061 391.8033,-140.991 391.8033,-140.991"/>
<polygon fill="#000000" stroke="#000000" points="388.3034,-140.9909 391.8033,-150.991 395.3034,-140.991 388.3034,-140.9909"/>
</g>
<!-- SelectRoutingModule -->
<g id="node6" class="node">
<title>SelectRoutingModule</title>
<polygon fill="#8dd3c7" stroke="#000000" points="279.3753,-122 276.3753,-126 255.3753,-126 252.3753,-122 140.6247,-122 140.6247,-86 279.3753,-86 279.3753,-122"/>
<text text-anchor="middle" x="210" y="-99.8" font-family="Times,serif" font-size="14.00" fill="#000000">SelectRoutingModule</text>
</g>
<!-- SelectRoutingModule&#45;&gt;SelectModule -->
<g id="edge5" class="edge">
<title>SelectRoutingModule&#45;&gt;SelectModule</title>
<path fill="none" stroke="#000000" d="M210,-122.0225C210,-139.3734 210,-163 210,-163 210,-163 369.1312,-163 369.1312,-163"/>
<polygon fill="#000000" stroke="#000000" points="369.1313,-166.5001 379.1312,-163 369.1312,-159.5001 369.1313,-166.5001"/>
</g>
<!-- SharedModule -->
<g id="node7" class="node">
<title>SharedModule</title>
<polygon fill="#8dd3c7" stroke="#000000" points="122.4231,-122 119.4231,-126 98.4231,-126 95.4231,-122 23.5769,-122 23.5769,-86 122.4231,-86 122.4231,-122"/>
<text text-anchor="middle" x="73" y="-99.8" font-family="Times,serif" font-size="14.00" fill="#000000">SharedModule</text>
</g>
<!-- SharedModule&#45;&gt;SelectModule -->
<g id="edge6" class="edge">
<title>SharedModule&#45;&gt;SelectModule</title>
<path fill="none" stroke="#000000" d="M73,-122.2843C73,-143.3211 73,-175 73,-175 73,-175 369.1243,-175 369.1243,-175"/>
<polygon fill="#000000" stroke="#000000" points="369.1244,-178.5001 379.1243,-175 369.1243,-171.5001 369.1244,-178.5001"/>
</g>
</g>
</svg>
