<?xml version="1.0" encoding="UTF-8" standalone="no"?>
<!DOCTYPE svg PUBLIC "-//W3C//DTD SVG 1.1//EN"
 "http://www.w3.org/Graphics/SVG/1.1/DTD/svg11.dtd">
<!-- Generated by graphviz version 2.40.1 (20161225.0304)
 -->
<!-- Title: dependencies Pages: 1 -->
<svg width="621pt" height="211pt"
 viewBox="0.00 0.00 621.00 211.00" xmlns="http://www.w3.org/2000/svg" xmlns:xlink="http://www.w3.org/1999/xlink">
<g id="graph0" class="graph" transform="scale(1 1) rotate(0) translate(4 207)">
<title>dependencies</title>
<polygon fill="#ffffff" stroke="transparent" points="-4,4 -4,-207 617,-207 617,4 -4,4"/>
<text text-anchor="start" x="285.5091" y="-42.4" font-family="sans-serif" font-weight="bold" font-size="14.00" fill="#000000">Legend</text>
<polygon fill="#ffffb3" stroke="transparent" points="72.5,-10 72.5,-30 92.5,-30 92.5,-10 72.5,-10"/>
<text text-anchor="start" x="96.129" y="-15.4" font-family="sans-serif" font-size="14.00" fill="#000000"> &#160;Declarations</text>
<polygon fill="#8dd3c7" stroke="transparent" points="185.5,-10 185.5,-30 205.5,-30 205.5,-10 185.5,-10"/>
<text text-anchor="start" x="209.2251" y="-15.4" font-family="sans-serif" font-size="14.00" fill="#000000"> &#160;Module</text>
<polygon fill="#80b1d3" stroke="transparent" points="271.5,-10 271.5,-30 291.5,-30 291.5,-10 271.5,-10"/>
<text text-anchor="start" x="295.2812" y="-15.4" font-family="sans-serif" font-size="14.00" fill="#000000"> &#160;Bootstrap</text>
<polygon fill="#fdb462" stroke="transparent" points="368.5,-10 368.5,-30 388.5,-30 388.5,-10 368.5,-10"/>
<text text-anchor="start" x="392.1732" y="-15.4" font-family="sans-serif" font-size="14.00" fill="#000000"> &#160;Providers</text>
<polygon fill="#fb8072" stroke="transparent" points="464.5,-10 464.5,-30 484.5,-30 484.5,-10 464.5,-10"/>
<text text-anchor="start" x="488.2258" y="-15.4" font-family="sans-serif" font-size="14.00" fill="#000000"> &#160;Exports</text>
<g id="clust1" class="cluster">
<title>cluster_LoginModule</title>
<polygon fill="none" stroke="#000000" stroke-dasharray="1,5" points="8,-70 8,-195 605,-195 605,-70 8,-70"/>
</g>
<g id="clust2" class="cluster">
<title>cluster_LoginModule_declarations</title>
<polygon fill="none" stroke="#000000" points="294,-78 294,-130 597,-130 597,-78 294,-78"/>
</g>
<g id="clust5" class="cluster">
<title>cluster_LoginModule_imports</title>
<polygon fill="none" stroke="#000000" points="16,-78 16,-130 286,-130 286,-78 16,-78"/>
</g>
<!-- LoginChoiceComponent -->
<g id="node1" class="node">
<title>LoginChoiceComponent</title>
<polygon fill="#ffffb3" stroke="#000000" points="589.4326,-122 434.5674,-122 434.5674,-86 589.4326,-86 589.4326,-122"/>
<text text-anchor="middle" x="512" y="-99.8" font-family="Times,serif" font-size="14.00" fill="#000000">LoginChoiceComponent</text>
</g>
<!-- LoginModule -->
<g id="node3" class="node">
<title>LoginModule</title>
<polygon fill="#8dd3c7" stroke="#000000" points="330.493,-187 327.493,-191 306.493,-191 303.493,-187 237.507,-187 237.507,-151 330.493,-151 330.493,-187"/>
<text text-anchor="middle" x="284" y="-164.8" font-family="Times,serif" font-size="14.00" fill="#000000">LoginModule</text>
</g>
<!-- LoginChoiceComponent&#45;&gt;LoginModule -->
<g id="edge1" class="edge">
<title>LoginChoiceComponent&#45;&gt;LoginModule</title>
<path fill="none" stroke="#000000" d="M512,-122.1061C512,-141.3391 512,-169 512,-169 512,-169 340.6894,-169 340.6894,-169"/>
<polygon fill="#000000" stroke="#000000" points="340.6894,-165.5001 330.6894,-169 340.6893,-172.5001 340.6894,-165.5001"/>
</g>
<!-- LoginComponent -->
<g id="node2" class="node">
<title>LoginComponent</title>
<polygon fill="#ffffb3" stroke="#000000" points="416.2758,-122 301.7242,-122 301.7242,-86 416.2758,-86 416.2758,-122"/>
<text text-anchor="middle" x="359" y="-99.8" font-family="Times,serif" font-size="14.00" fill="#000000">LoginComponent</text>
</g>
<!-- LoginComponent&#45;&gt;LoginModule -->
<g id="edge2" class="edge">
<title>LoginComponent&#45;&gt;LoginModule</title>
<path fill="none" stroke="#000000" d="M316.0544,-122.1061C316.0544,-122.1061 316.0544,-140.991 316.0544,-140.991"/>
<polygon fill="#000000" stroke="#000000" points="312.5544,-140.9909 316.0544,-150.991 319.5544,-140.991 312.5544,-140.9909"/>
</g>
<!-- LoginRoutingModule -->
<g id="node4" class="node">
<title>LoginRoutingModule</title>
<polygon fill="#8dd3c7" stroke="#000000" points="278.1108,-122 275.1108,-126 254.1108,-126 251.1108,-122 139.8892,-122 139.8892,-86 278.1108,-86 278.1108,-122"/>
<text text-anchor="middle" x="209" y="-99.8" font-family="Times,serif" font-size="14.00" fill="#000000">LoginRoutingModule</text>
</g>
<!-- LoginRoutingModule&#45;&gt;LoginModule -->
<g id="edge3" class="edge">
<title>LoginRoutingModule&#45;&gt;LoginModule</title>
<path fill="none" stroke="#000000" d="M257.7795,-122.1061C257.7795,-122.1061 257.7795,-140.991 257.7795,-140.991"/>
<polygon fill="#000000" stroke="#000000" points="254.2795,-140.9909 257.7795,-150.991 261.2795,-140.991 254.2795,-140.9909"/>
</g>
<!-- SharedModule -->
<g id="node5" class="node">
<title>SharedModule</title>
<polygon fill="#8dd3c7" stroke="#000000" points="122.4231,-122 119.4231,-126 98.4231,-126 95.4231,-122 23.5769,-122 23.5769,-86 122.4231,-86 122.4231,-122"/>
<text text-anchor="middle" x="73" y="-99.8" font-family="Times,serif" font-size="14.00" fill="#000000">SharedModule</text>
</g>
<!-- SharedModule&#45;&gt;LoginModule -->
<g id="edge4" class="edge">
<title>SharedModule&#45;&gt;LoginModule</title>
<path fill="none" stroke="#000000" d="M73,-122.1061C73,-141.3391 73,-169 73,-169 73,-169 227.4339,-169 227.4339,-169"/>
<polygon fill="#000000" stroke="#000000" points="227.434,-172.5001 237.4339,-169 227.4339,-165.5001 227.434,-172.5001"/>
</g>
</g>
</svg>
